<?xml version="1.0" encoding="iso-8859-1"?>
<!-- Uploaded to: SVG Repo, www.svgrepo.com, Generator: SVG Repo Mixer Tools -->
<svg height="800px" width="800px" version="1.1" id="Layer_1" xmlns="http://www.w3.org/2000/svg" xmlns:xlink="http://www.w3.org/1999/xlink" 
	 viewBox="0 0 511.999 511.999" xml:space="preserve">
<path style="fill:#672415;" d="M450.879,53.359c-4.366-4.363-10.283-6.814-16.455-6.814c-0.002,0-0.005,0-0.008,0l-93.091,0.028
	c-12.85,0.003-23.265,10.422-23.265,23.273v372.336c0,12.853,10.42,23.273,23.273,23.273h93.091
	c12.853,0,23.273-10.42,23.273-23.273V69.817C457.697,63.644,455.244,57.723,450.879,53.359z"/>
<path style="fill:#B66D38;" d="M356.291,5.444c-5.272-4.422-12.224-6.285-19.004-5.089L73.529,46.928
	c-11.12,1.963-19.226,11.626-19.226,22.917v372.336c0,11.293,8.108,20.956,19.229,22.919l263.758,46.545
	c1.345,0.237,2.698,0.354,4.043,0.354c5.429,0,10.735-1.901,14.958-5.444c5.27-4.422,8.315-10.949,8.315-17.828V23.272
	C364.606,16.393,361.562,9.865,356.291,5.444z"/>
<path style="fill:#AA3827;" d="M356.291,5.444c-5.272-4.422-12.224-6.285-19.004-5.089L209.454,22.926v466.162l127.836,22.557
	c1.345,0.237,2.698,0.354,4.043,0.354c5.429,0,10.735-1.901,14.958-5.444c5.27-4.422,8.315-10.949,8.315-17.828V23.272
	C364.606,16.393,361.562,9.865,356.291,5.444z"/>
<path style="fill:#F4D371;" d="M294.784,294.787c-6.128,0-12.119-2.482-16.448-6.811c-4.344-4.329-6.825-10.333-6.825-16.462
	c0-6.128,2.482-12.117,6.825-16.462c4.329-4.329,10.333-6.811,16.448-6.811c6.127,0,12.131,2.482,16.46,6.811
	c4.329,4.344,6.813,10.333,6.813,16.462c0,6.129-2.484,12.133-6.813,16.462C306.916,292.305,300.911,294.787,294.784,294.787z"/>
</svg>