<?xml version="1.0" encoding="UTF-8"?>
<svg version="1.1" xmlns="http://www.w3.org/2000/svg" width="100" height="100">
<path d="M0 0 C3.59065104 1.79532552 5.0930427 2.90207047 7.71484375 5.73046875 C8.40126953 6.45041016 9.08769531 7.17035156 9.79492188 7.91210938 C11.22733969 9.43331882 12.65181236 10.96204768 14.06835938 12.49804688 C14.75607422 13.21412109 15.44378906 13.93019531 16.15234375 14.66796875 C17.0803479 15.66219849 17.0803479 15.66219849 18.02709961 16.67651367 C18.67815674 17.11326416 19.32921387 17.55001465 20 18 C20.7943042 17.80937988 21.5886084 17.61875977 22.40698242 17.42236328 C25 17 25 17 27.60302734 18.8425293 C28.5048877 19.74398682 29.40674805 20.64544434 30.3359375 21.57421875 C30.81954742 22.05445999 31.30315735 22.53470123 31.80142212 23.02949524 C32.81877889 24.04715071 33.8286901 25.07229669 34.83154297 26.10424805 C36.37158904 27.6840011 37.93886953 29.23227643 39.51171875 30.77929688 C40.49655473 31.77169096 41.47968882 32.7657775 42.4609375 33.76171875 C43.80357666 35.1223645 43.80357666 35.1223645 45.17333984 36.51049805 C47 39 47 39 47.00854492 41.08422852 C45.76387001 43.44853838 44.31589642 45.02227437 42.40234375 46.890625 C41.68369141 47.59960938 40.96503906 48.30859375 40.22460938 49.0390625 C39.46986328 49.76867188 38.71511719 50.49828125 37.9375 51.25 C37.17888672 51.99507812 36.42027344 52.74015625 35.63867188 53.5078125 C33.76567793 55.34546694 31.88604389 57.17575724 30 59 C30.33 59.99 30.66 60.98 31 62 C19.615 73.385 19.615 73.385 8 85 C4.54740307 83.27370154 2.92761399 82.16774527 0.328125 79.5234375 C-0.33574219 78.853125 -0.99960937 78.1828125 -1.68359375 77.4921875 C-2.70646484 76.44417969 -2.70646484 76.44417969 -3.75 75.375 C-4.44738281 74.66859375 -5.14476562 73.9621875 -5.86328125 73.234375 C-7.58012488 71.49401297 -9.29211832 69.74915019 -11 68 C-12.485 68.99 -12.485 68.99 -14 70 C-18.12573532 69.82012997 -20.21682907 67.12676552 -22.984375 64.30859375 C-23.44483215 63.84389175 -23.90528931 63.37918976 -24.37969971 62.90040588 C-25.84367811 61.41968181 -27.29686041 59.92885481 -28.75 58.4375 C-29.74279449 57.42965336 -30.7362767 56.42248367 -31.73046875 55.41601562 C-34.16166473 52.95180539 -36.58328868 50.47842671 -39 48 C-37.5735422 44.7413364 -35.83295838 42.5975146 -33.3046875 40.109375 C-32.23154297 39.04589844 -32.23154297 39.04589844 -31.13671875 37.9609375 C-30.39035156 37.23132812 -29.64398438 36.50171875 -28.875 35.75 C-28.12089844 35.00492188 -27.36679687 34.25984375 -26.58984375 33.4921875 C-24.73099228 31.6568658 -22.86762995 29.8263809 -21 28 C-21.66 26.35 -22.32 24.7 -23 23 C-15.41 15.41 -7.82 7.82 0 0 Z " fill="#149852" transform="translate(48,6)"/>
<path d="M0 0 C3.65357103 1.46142841 6.71628422 2.87932955 10.08203125 4.8203125 C11.01337891 5.35527344 11.94472656 5.89023437 12.90429688 6.44140625 C13.86400391 6.99699219 14.82371094 7.55257812 15.8125 8.125 C16.79154297 8.68832031 17.77058594 9.25164063 18.77929688 9.83203125 C21.18789555 11.21844415 23.59471395 12.60785055 26 14 C26 14.99 26 15.98 26 17 C22.23159802 19.15012454 18.45987724 21.29435886 14.6875 23.4375 C13.0797168 24.35499023 13.0797168 24.35499023 11.43945312 25.29101562 C9.89741211 26.1659668 9.89741211 26.1659668 8.32421875 27.05859375 C7.37635498 27.59798584 6.42849121 28.13737793 5.4519043 28.69311523 C3 30 3 30 0 31 C0 20.77 0 10.54 0 0 Z " fill="#DBE1E1" transform="translate(42,34)"/>
</svg>
