<?xml version="1.0" encoding="UTF-8"?>
<svg width="300" height="180" version="1.0" viewBox="0 0 300 180" xmlns="http://www.w3.org/2000/svg">
<rect width="300" height="180" fill="#004990"/>
<path d="m163.08 122.99c-0.0433-0.11958-0.19708-0.14875-0.29875-0.10583l-0.56167 0.25c-0.12041 0.03-0.1725 0.17416-0.13 0.28416l5.6633 16.942 8.3246 15.53c0.0521 0.13 0.20667 0.17416 0.30833 0.12541 0.19625-0.0812 0.38334-0.18708 0.57125-0.24583 0-0.0179 0.0229-0.0179 0.0229-0.0179 0.10167-0.0342 0.16917-0.16833 0.12458-0.29375l-5.6129-16.755zm-29.805-65.978c0.0625 0.11542 0.20166 0.14875 0.3075 0.10583 0.1975-0.10083 0.39416-0.16833 0.58166-0.25 0.11542-0.05333 0.17792-0.17333 0.13917-0.29792l-5.6138-16.756-8.4017-15.722c-0.0579-0.10083-0.1875-0.14875-0.3125-0.08667l-0.5525 0.22583c-0.125 0.05292-0.16833 0.17333-0.125 0.29875l5.6525 16.918zm34.784 63.248c-0.0767-0.105-0.22542-0.12458-0.31167-0.0571l-0.51917 0.3075c-0.0863 0.0717-0.13916 0.20667-0.0725 0.31667l8.2388 15.838 10.65 14.063c0.0725 0.10584 0.22208 0.12959 0.32792 0.0529 0.16291-0.11542 0.34-0.22125 0.51833-0.33625l0.0146-4e-3c0.10584-0.0633 0.135-0.19875 0.0863-0.31333l-8.1696-15.684zm-50.4-74.572 10.642 14.059c0.0671 0.10083 0.21625 0.13 0.32167 0.0575 0.17333-0.11458 0.35083-0.23042 0.52375-0.33125 0.12042-0.08167 0.14458-0.21167 0.0958-0.32208l-8.1567-15.674-10.766-14.198c-0.0529-0.11083-0.20667-0.13-0.30792-0.05792l-0.49958 0.3125c-0.11084 0.0625-0.14459 0.20167-0.10125 0.32208zm54.894 71.083c-0.1-0.0871-0.235-0.0871-0.32542-5e-3l-0.4575 0.39875c-0.0863 0.0863-0.11458 0.21667-0.0375 0.32709l10.622 14.357 12.717 12.209c0.0958 0.0904 0.24 0.0904 0.33209 4e-3 0.14791-0.14417 0.3075-0.28709 0.46125-0.4175h5e-3c0.1-0.0821 0.11458-0.21167 0.0333-0.3175l-10.498-14.218zm-48.732-53.549c0.0817 0.10583 0.23542 0.10583 0.32709 0.02375 0.14916-0.14875 0.30291-0.3025 0.46666-0.41792v-0.0046c0.0867-0.0725 0.10584-0.23125 0.0379-0.32208l-10.516-14.213-12.843-12.333c-0.10041-0.09167-0.23041-0.09167-0.33166-0.02458l-0.45209 0.39417c-0.0908 0.09583-0.11041 0.22583-0.0333 0.33667l10.627 14.348zm67.248 59.59-14.63-10.165c-0.0967-0.0812-0.23125-0.0725-0.3125 0.0383l-0.39 0.4575c-0.0813 0.10083-0.0767 0.23125 0.01 0.33125l12.733 12.507 14.472 10.07c0.12042 0.0863 0.26459 0.0617 0.34084-0.0479 0.12041-0.15375 0.25958-0.32292 0.38416-0.46208l6e-3 -0.0138c0.0821-0.0913 0.0767-0.23042-0.0187-0.31667zm-85.613-65.512 14.472 10.065c0.10583 0.08167 0.25458 0.06167 0.33667-0.04333 0.12041-0.15375 0.25-0.33208 0.39-0.47208h5e-3c0.0867-0.11458 0.0625-0.23417-0.0196-0.34542l-12.602-12.372-14.621-10.18c-0.10125-0.0775-0.24042-0.05792-0.32208 0.0475l-0.39417 0.45708c-0.07208 0.08625-0.06708 0.245 0.02417 0.32167zm90.212 58.395-16.029-7.7571c-0.12458-0.0683-0.25458-0.0196-0.3125 0.0904l-0.31166 0.52917c-0.0633 0.10166-0.0433 0.235 0.0717 0.29875l14.53 10.377 15.87 7.6854c0.12208 0.0633 0.25542 0.0292 0.32375-0.10083 0.0863-0.16834 0.20167-0.35 0.30667-0.52334 0.01 0 0.01-5e-3 0.01-5e-3 0.0579-0.10666 0.0433-0.24583-0.0717-0.32708zm-94.802-51.314 15.857 7.685c0.13417 0.0675 0.26917 0.01917 0.32167-0.09125 0.0962-0.17792 0.21125-0.37042 0.31708-0.51917l0.01-0.01458c0.0575-0.12 0.0379-0.25417-0.0679-0.32625l-14.381-10.272-16.049-7.7625c-0.10583-0.06208-0.24-0.0092-0.30292 0.08667l-0.31708 0.53333c-0.05292 0.10583-0.03875 0.25042 0.07667 0.31708zm-3.4225 7.7238 16.861 5.1046c0.13916 0.0525 0.27375-0.01458 0.3125-0.15958 0.0671-0.1725 0.12958-0.37917 0.22583-0.55167l0.01-0.01458c0.0383-0.10583 0-0.245-0.13458-0.3075l-15.808-7.8825-17.063-5.1667c-0.115-0.02917-0.23542 0.01875-0.28375 0.13917l-0.23042 0.5525c-0.04833 0.13417 0 0.25958 0.125 0.31792zm-2.1729 8.1562 17.467 2.4079c0.125 0.02458 0.24959-0.0575 0.27834-0.19208 0.0342-0.20167 0.0771-0.41333 0.12041-0.59625 0 0 0.01-0.0092 0.01-0.02875 0.0337-0.10542-0.0529-0.235-0.16334-0.26458l-16.871-5.3158-17.635-2.4325c-0.11958-0.02833-0.24458 0.0625-0.25875 0.18292l-0.13917 0.58625c-0.02917 0.125 0.04333 0.24542 0.15375 0.27375zm-0.87417 8.3975 17.63-0.35167c0.13459 0 0.23542-0.11 0.23542-0.235 0-0.19792 0.0192-0.41875 0.0337-0.61125v-0.01875c0.0192-0.12-0.0767-0.23125-0.19708-0.25l-17.476-2.605-17.818 0.35083c-0.12042 0-0.21667 0.11083-0.23083 0.23125l-0.03792 0.58125c-5e-3 0.14875 0.08125 0.25958 0.19167 0.26917zm17.807 5.3208c0.14417-0.01375 0.22584-0.13 0.20667-0.25958-0.0192-0.20667-0.0433-0.41417-0.0525-0.61542v-0.01042c-0.01-0.11958-0.12042-0.22542-0.26-0.22542l-17.673 0.16292-17.525 3.1446c-0.12958 0.02833-0.21625 0.12542-0.20208 0.26375l0.04333 0.5925c0.01875 0.11 0.13458 0.21958 0.25458 0.21958l17.852-0.15292zm1.0675 5.58c0.12-0.03417 0.1925-0.15375 0.15375-0.29375-0.0525-0.19208-0.11083-0.39875-0.15375-0.60542-0.0292-0.11458-0.14875-0.19708-0.27458-0.1775l-17.423 2.9029-16.838 5.8588c-0.125 0.0438-0.1825 0.16917-0.15375 0.27917l0.15375 0.60041c0.02917 0.12042 0.14417 0.19292 0.27417 0.16917l17.606-2.9525zm1.9271 5.35c0.12041-0.0625 0.16333-0.18708 0.11041-0.32208-0.0862-0.16375-0.17291-0.37584-0.25-0.55834l-5e-3 -4e-3c-0.0433-0.11459-0.17291-0.16375-0.29791-0.13l-16.751 5.5942-15.707 8.4083c-0.12042 0.0571-0.16375 0.20083-0.12042 0.31166l0.24542 0.56167c0.04333 0.11083 0.17792 0.16458 0.2975 0.13083l16.924-5.6721zm63.243-34.79c-0.11083 0.08667-0.12458 0.22542-0.0571 0.33667l0.32708 0.495c0.0571 0.11542 0.19208 0.14833 0.31167 0.10625l15.838-8.2579 14.054-10.651c0.10667-0.0725 0.12458-0.22625 0.0588-0.33208-0.11083-0.1675-0.22458-0.34125-0.33708-0.51417v-0.01375c-0.0617-0.09667-0.20167-0.13458-0.30292-0.0775l-15.679 8.1517zm-60.513 39.769c0.11542-0.0812 0.12459-0.21083 0.0675-0.33125-0.125-0.15875-0.23541-0.34667-0.3175-0.50458l-0.0237-0.0246c-0.0625-0.1-0.19708-0.13916-0.3125-0.0821l-15.683 8.1517-14.198 10.757c-0.10625 0.0871-0.11083 0.23125-0.0625 0.33709l0.32708 0.495c0.06208 0.11541 0.21125 0.15875 0.3125 0.10083l15.832-8.2429zm57.034-44.249c-0.0913 0.09208-0.0913 0.22625 0 0.33208l0.39792 0.45167c0.0775 0.08667 0.2075 0.12042 0.3125 0.03875l14.363-10.622 12.218-12.733c0.0821-0.08625 0.0821-0.235 0-0.33125-0.14875-0.13458-0.28875-0.29375-0.41333-0.44667-0.0863-0.10625-0.21167-0.12542-0.32708-0.0625l-14.213 10.516zm-53.545 48.733c0.0862-0.0854 0.10541-0.235 0.0142-0.33542-0.14375-0.14-0.29291-0.30375-0.41333-0.46208h-0.01c-0.0771-0.0912-0.22084-0.105-0.32167-0.0333l-14.218 10.488-12.329 12.863c-0.10083 0.1-0.10083 0.23042-0.01375 0.32625l0.39875 0.46125c0.08167 0.0967 0.22583 0.11542 0.3175 0.0283l14.352-10.617zm49.41-52.621c-0.0821 0.12-0.0675 0.245 0.0333 0.3225l0.47208 0.38958c0.0954 0.08042 0.23042 0.08042 0.32542-0.01458l12.516-12.738 10.071-14.472c0.0813-0.11083 0.0617-0.25083-0.0437-0.34083-0.17251-0.11542-0.33709-0.25042-0.48084-0.39459v-5e-3c-0.1-0.0575-0.235-0.0575-0.32209 0.02917l-12.395 12.593zm-45.262 56.515c0.0671-0.11083 0.0433-0.25166-0.0438-0.34166-0.1825-0.10584-0.33583-0.24417-0.48541-0.37917v-0.0196c-0.10084-0.0775-0.24042-0.0717-0.33167 0.0283l-12.4 12.594-10.171 14.63c-0.0817 0.10666-0.0479 0.245 0.0388 0.3175l0.46625 0.38916c0.0962 0.0775 0.245 0.0775 0.33667-0.0137l12.516-12.733zm40.557-59.701c-0.0625 0.105-6e-3 0.25 0.10083 0.2975l0.51417 0.3075c0.10083 0.0675 0.23916 0.05792 0.32125-0.0575l10.372-14.54 7.6808-15.871c0.0538-0.11458 0.0104-0.25958-0.10416-0.3175-0.1825-0.09583-0.35625-0.20583-0.53959-0.31167-0.105-0.08708-0.23041-0.04792-0.31166 0.06167l-10.257 14.382zm-35.862 62.897c0.0533-0.11959 5e-3 -0.26375-0.10583-0.33209-0.16792-0.0863-0.36-0.19125-0.52375-0.29791 0 0-0.0142 0-0.0142-0.0146-0.11042-0.0717-0.23042-0.0283-0.31708 0.0633l-10.262 14.381-7.7721 16.045c-0.0483 0.12458-5e-3 0.25 0.10541 0.31167l0.50459 0.31166c0.125 0.0587 0.25458 0.0392 0.33625-0.0563l10.358-14.555zm30.858-65.022 0.56167 0.21167c0.12541 0.0625 0.25541 0.01375 0.31833-0.10583l7.9558-15.981 5.1138-16.861c0.0471-0.135-0.0238-0.24583-0.14958-0.30792-0.17833-0.06208-0.39-0.13917-0.56708-0.22083l-8e-3 -5e-3c-0.13083-0.03833-0.23666 0-0.30416 0.12l-7.8921 15.799-5.1529 17.054c-0.0421 0.12917 0.0196 0.23958 0.12458 0.2975m-25.864 67.127c-0.19209-0.0529-0.39459-0.14417-0.58167-0.21167v-0.0138c-0.125-0.0392-0.25458 0.0138-0.3125 0.11458l-7.8775 15.799-5.1721 17.068c-0.0433 0.12541 0.0142 0.25 0.14416 0.29791l0.5675 0.22125c0.10584 0.0433 0.235 0 0.3075-0.10083l7.9496-15.991 5.11-16.885c0.0525-0.11125-0.0242-0.25542-0.135-0.29875m21.052-68.607c0.12125 0.03333 0.245-0.04333 0.28333-0.16458l5.3646-17.034 2.4129-17.462c4e-3 -0.13417-0.0675-0.25958-0.20166-0.27875-0.19625-0.03333-0.39875-0.08167-0.60542-0.13458v-0.0042c-0.11083-0.02458-0.245 0.0425-0.27833 0.15792l-5.3212 16.862-2.4317 17.659c-0.0146 0.12458 0.0608 0.23417 0.18708 0.26917zm-16.245 70.083h-5e-3c-0.125-0.0246-0.25 0.0438-0.29833 0.16917l-5.3062 16.855-2.4179 17.654c-0.0238 0.12541 0.0433 0.24083 0.16834 0.25541l0.59125 0.14334c0.125 0.0246 0.245-0.0375 0.29291-0.15792l5.3596-17.048 2.4125-17.448c0.0242-0.14875-0.0529-0.25375-0.19709-0.27833-0.20125-0.0388-0.4075-0.0817-0.6-0.14459m10.06-70.962 0.60125 0.04333c0.12375 5e-3 0.23042-0.08208 0.25375-0.21167l2.6433-17.654-0.36459-17.63c0-0.13917-0.0958-0.25-0.24083-0.25-0.19708-5e-3 -0.40292-0.0096-0.60542-0.03417-0.13916 0-0.235 0.0675-0.24833 0.20667l-2.6304 17.476 0.36542 17.818c0 0.13458 0.10542 0.22125 0.22583 0.23542m-3.86 71.837c-0.21083 0-0.4175-0.0138-0.61458-0.0283-0.13958-0.0146-0.24042 0.0725-0.265 0.20167l-2.6288 17.486 0.37458 17.799c0 0.14416 0.10084 0.25 0.22084 0.25l0.59583 0.0246c0.13458 0.0187 0.25-0.0683 0.26917-0.19792l2.6342-17.65-0.35583-17.639c8.3e-4 -0.12583-0.1-0.24125-0.23042-0.24625m-2.0421-71.904c0.0333 0.13417 0.12917 0.21083 0.26917 0.20583l0.59083-0.05292c0.125-0.01875 0.21125-0.11 0.21125-0.25458l-0.16792-17.842-3.0854-17.366c-0.0246-0.12458-0.13959-0.21167-0.27875-0.20167-0.19709 0.03375-0.41375 0.04792-0.61542 0.0625 0.0192 0 0 0 0 0-0.125 0.01458-0.21625 0.12042-0.21625 0.23125l0.14375 17.687zm7.9542 71.972c-0.0188-0.12458-0.14334-0.22541-0.27334-0.20583-0.19291 0.0325-0.41333 0.0617-0.62083 0.0617-0.11958 0.0246-0.22125 0.12041-0.22125 0.25458l0.16458 17.664 3.1388 17.539c0.0188 0.12458 0.13334 0.21166 0.25875 0.18708l0.60625-0.0471c0.11084-5e-3 0.205-0.11625 0.22459-0.24584l-0.17667-17.847zm-13.535-70.895c0.0433 0.10583 0.16833 0.18708 0.28375 0.15292l0.59125-0.15292c0.11541-0.02542 0.19208-0.135 0.16375-0.26l-2.9275-17.625-5.7971-16.655c-0.0283-0.12958-0.14875-0.18708-0.29791-0.14833-0.1875 0.0475-0.39417 0.10542-0.58667 0.14833h-0.02375c-0.10583 0.02458-0.19167 0.15375-0.17792 0.27417l2.9229 17.428zm19.106 69.828c-0.0238-0.12042-0.1675-0.19209-0.28792-0.16375-0.18791 0.0625-0.40458 0.12041-0.58666 0.16375h-0.0187c-0.12042 0.0333-0.19709 0.15375-0.1775 0.26458l2.9175 17.447 5.8538 16.823c0.0333 0.12458 0.15375 0.19208 0.27833 0.15875l0.58583-0.13917c0.11084-0.0392 0.20834-0.15958 0.17834-0.29291l-2.945-17.598z" fill="#ffd51d"/>
<path d="m130.37 88.4c-1.7738 0.81167-3.4796 1.61-5.0562 2.3646 0.68208 2.6638 1.6 5.2921 2.7296 7.7904 0.96125 2.1788 2.1146 4.3171 3.3983 6.3696 1.5671-0.82208 3.1862-1.6342 4.9412-2.4754 1.3646-0.66333 2.8883-1.3608 4.6429-2.1671-0.94666-1.8604-1.875-3.7825-2.7979-5.9075-1.2154-2.8408-2.2346-5.5225-3.1046-8.1421-1.9608 0.86958-3.4321 1.5567-4.7533 2.1675m13.52 10.589c0.83166-0.35083 1.6775-0.72583 2.5379-1.1012 1.6825-0.725 2.9704-1.2679 4.2054-1.7879 2.5954-1.11 4.7925-2.0238 6.8879-2.8892-0.81709-2.1729-1.6292-4.1667-2.4754-6.1133-1.0142-2.3938-2.1875-4.8838-3.5562-7.6083l-0.12625-0.22167c-2.4362 0.995-4.6854 1.9225-6.8246 2.8162l-0.81209 0.34208c-1.7929 0.77292-3.6867 1.6142-5.7875 2.5475 1.005 2.7829 2.0817 5.5125 3.24 8.0933 0.76917 1.8617 1.6579 3.7888 2.7108 5.9225m26.638-10.69c-0.59167-2.3938-1.4096-4.7779-2.3779-7.0992-1.0108-2.4325-2.2508-4.8208-3.6842-7.1133-1.7633 0.67208-3.5033 1.3358-5.56 2.1533-1.5567 0.63-3.0812 1.2304-4.6475 1.8604 1.2738 2.3504 2.4888 4.8783 3.7388 7.7188 0.92292 2.1246 1.7367 4.2154 2.4325 6.2246 1.6008-0.65042 3.1583-1.2404 4.6388-1.8171 1.9033-0.69667 3.6858-1.3412 5.4596-1.9275m2.3888-0.78875c0.90416-0.28833 2.0917-0.65833 3.3308-0.985 0.69667-0.16792 1.3225-0.32208 1.9612-0.4425 0.15375-0.03333 0.27833-0.04333 0.4425-0.07708-0.39-2.8021-1.1383-5.5371-2.2633-8.1421-0.99542-2.2875-2.2404-4.4221-3.7312-6.3925l-0.26375 0.03333c-0.29459 0.03333-0.59084 0.10583-0.84625 0.16833-0.59084 0.14875-1.2067 0.34125-1.7967 0.54292-0.875 0.27417-1.8467 0.61042-2.8938 0.99042 1.4462 2.1679 2.7117 4.5183 3.7492 6.9596 0.98958 2.3754 1.7633 4.845 2.3112 7.3446m-48.762 21.879 0.16833-0.16291c0.57209-0.47125 1.1488-0.85125 1.6725-1.1971 1.0867-0.68666 2.1821-1.3267 3.2254-1.9083-1.3983-2.0567-2.6146-4.2283-3.6192-6.4737-1.1054-2.5283-1.9658-5.1288-2.5567-7.7621-0.81292 0.38917-1.9467 0.98-3.0475 1.605-0.46125 0.25458-1.0575 0.60625-1.5812 0.96583-0.19167 0.14417-0.38959 0.28792-0.54292 0.4425l-0.125 0.1c0.40375 2.5096 1.11 4.9708 2.1388 7.3104 1.1046 2.5288 2.5321 4.9183 4.2675 7.0804m-4.4988-30.972c-1.8504 4.5329-2.6196 9.5075-2.1821 14.347 0.44666-0.33458 0.94208-0.68667 1.4658-1.0221 0.96583-0.61625 2.0575-1.2604 3.4079-2.01l0.245-0.12958c-0.0142-0.145-0.0483-0.29792-0.0775-0.4425l-9e-3 -0.12458c-0.59167-3.8846-0.5725-7.5988 0.0379-11.055 0.10125-0.5575 0.2025-1.0721 0.32709-1.5862-1.0912 0.62917-2.0042 1.1917-2.8358 1.7588zm12.377-6.7429c-1.1054 0.52333-2.1917 1.0283-3.3983 1.6342-1.235 0.625-2.4417 1.24-3.6483 1.9125-0.27875 1.0246-0.49 2.0429-0.62458 3.0242-0.42334 3.1721-0.29834 6.6042 0.40833 10.203 1.3988-0.735 2.8792-1.4804 4.5375-2.2975 1.7204-0.7975 3.3692-1.5617 5.0658-2.3212-0.59083-1.9946-1.0812-3.9079-1.4804-5.8833-0.35542-1.8988-0.71084-3.9796-0.86-6.2721m7.56-3.4133-1.5329 0.66833c-1.0862 0.47125-2.3212 1.01-3.8888 1.735 0.245 1.9758 0.6875 4.1488 1.365 6.6525 0.41333 1.4904 0.89417 3.1192 1.6054 5.2679 0.65333-0.28792 1.3075-0.58125 1.9754-0.85958l0.245-0.12042c1.3267-0.56708 2.73-1.1683 4.215-1.7975 2.1779-0.94208 4.4125-1.8604 6.6183-2.7733-0.82667-1.5279-1.7254-3.1196-2.7825-4.8492-0.88917-1.4092-2.2496-3.5142-3.9221-5.5521-1.4221 0.58542-2.7438 1.1433-3.8979 1.6283m9.6667-3.8646c-1.1488 0.41917-2.3796 0.90417-3.5233 1.3421 1.3071 1.3983 2.605 3.0183 3.96 4.9458 1.1146 1.5904 2.2396 3.3254 3.3267 5.2146 1.4942-0.61042 3.1429-1.24 4.9829-1.9512 1.8271-0.68708 3.515-1.2783 5.1588-1.8408l-0.0433-0.06792c-2.1971-3.0512-4.6288-5.5508-7.2625-7.4162-0.82667-0.58125-1.7075-1.1579-2.6254-1.6242-1.2729 0.4175-2.5692 0.87458-3.9738 1.3979m9.8679-3.0658-0.4575 0.11042c-0.94167 0.20208-1.9654 0.47083-3.1242 0.83125 0.43792 0.25 0.88542 0.50958 1.3608 0.82667 2.9371 1.9275 5.6517 4.475 8.0796 7.5508 0.13417 0.16375 0.275 0.33667 0.40458 0.505l0.12542 0.16792c1.3346-0.41833 2.5667-0.78333 3.6704-1.0712 0.75041-0.20167 1.38-0.34167 1.9621-0.4525l0.10083-0.0096h0.0437c-3.2887-3.7492-7.5033-6.6754-12.166-8.4587m-2.9125-0.94667c-3.0817-0.84208-6.2829-1.1921-9.5129-1.0529 2.1829 0.22125 4.4217 0.82667 6.6238 1.8217 1.0229-0.30292 1.9754-0.53833 2.8892-0.76875m-16.852 0.73042c0.30791 0.08625 0.62458 0.21167 0.92291 0.35583 1.4946 0.69667 2.7688 1.74 3.7154 2.5717 0.0962 0.07167 0.17792 0.14875 0.25 0.23042 1.5721-0.61542 3.0283-1.1433 4.3929-1.62 0.79375-0.25917 1.5238-0.52375 2.2212-0.74458-1.5092-0.59125-3.0138-0.98583-4.5042-1.1729-2.2354-0.32708-4.6288-0.1975-6.9983 0.37958m-2.365 0.92208c-0.32209 0-0.65375 0.04875-0.96125 0.15458-0.90834 0.495-1.5621 1.5042-1.8696 3.0092-0.1875 0.99875-0.24958 2.0958-0.17291 3.4221 1.2642-0.58625 2.5858-1.1825 4.0662-1.8317 1.5379-0.64875 2.8788-1.2154 4.095-1.6967-0.88459-0.9325-1.74-1.6675-2.605-2.215-0.625-0.37542-1.5721-0.8425-2.5525-0.8425m-8.9692 6.6188c-0.87958 1.2162-1.615 2.6004-2.2254 4.0858 0.60084-0.33208 1.245-0.67292 1.99-1.0671 1.4133-0.73583 2.7633-1.4225 4.1579-2.0912v-0.33667c0.0621-1.8021 0.29292-3.225 0.68708-4.4654 0.12459-0.31667 0.245-0.63 0.36042-0.87917-1.9704 1.3079-3.6912 2.9508-4.97 4.7538m-4.4604 5.3546c0.8225-2.3354 1.9521-4.4312 3.3221-6.2-2.3988 2.2829-4.3888 4.9217-5.9412 7.8488 0.79791-0.53333 1.6438-1.0625 2.6192-1.6488m15.52 44.94c0.71125-0.39875 1.4517-0.8075 2.2979-1.2346-0.60542-0.35167-1.2546-0.74042-1.8796-1.1588-2.9371-1.9612-5.6717-4.48-8.1138-7.4933-0.22083-0.26916-0.4275-0.54375-0.63916-0.81708l-0.21625-0.3125-0.0867 0.0675c-0.875 0.42708-2.1629 1.0725-3.3842 1.7733-0.53833 0.29792-1.0912 0.62-1.5812 0.98542l-0.11 0.0579c3.5567 3.8979 8.0892 6.835 13.107 8.4929zm7.3396-3.7288 0.245-0.10167c1.2592-0.60458 2.2496-1.0529 3.1671-1.4754-1.345-1.5429-2.465-3.0283-3.2679-4.1583-1.5233-2.1183-2.9367-4.4167-4.3738-6.9979-1.8121 0.83166-3.3642 1.5538-4.7729 2.2012-1.6725 0.755-3.2108 1.4712-4.6954 2.1875l4e-3 0.0246c0.0579 0.0617 0.10584 0.13417 0.15834 0.21667 0.11083 0.1725 0.23541 0.33125 0.35125 0.495 2.2254 3.0283 4.6908 5.5275 7.3246 7.4212 0.83167 0.62 1.74 1.2012 2.7017 1.735 1.1492-0.57792 2.2733-1.1108 3.1579-1.5479m5.5948-2.5675c1.6725-0.74958 3.3546-1.4992 4.9358-2.1779 1.4329-0.62416 3.0483-1.3021 4.9317-2.09-0.32084-2.0483-0.80167-3.9471-1.2158-5.5321-0.75458-2.7312-1.5038-5.105-2.2925-7.2925-2.0908 0.85625-4.3067 1.7692-6.7871 2.8029l-0.80667 0.35583c-2.0917 0.90417-3.9854 1.7408-5.7733 2.5283 1.2112 2.3258 2.4896 4.6046 3.8067 6.7529 1.12 1.8117 2.1629 3.3358 3.2012 4.6525m12.113-5.2c1.0433-0.42333 2.1438-0.88042 3.2488-1.2883 1.3362-0.53375 2.5088-0.97584 3.5996-1.3942 0.275-1.1004 0.47625-2.1583 0.60625-3.1625 0.41333-3.2112 0.26916-6.71-0.39-10.397-0.0571-0.22458-0.105-0.42708-0.14875-0.64375v-0.01458c-1.3746 0.52417-2.7492 1.0579-4.1812 1.635l-0.9075 0.35083c-1.5812 0.61042-3.2071 1.2638-4.7158 1.8692 0.87959 2.7158 1.5771 5.2825 2.0917 7.8108 0.38833 1.9417 0.65292 3.6433 0.79708 5.2346m10.872-2.3846c-0.58584 0.23583-1.1492 0.45166-1.735 0.69666-0.29375 0.10084-0.60625 0.23125-0.91375 0.35584-0.76417 2.2542-1.7929 4.2733-3.0508 6.0142-0.23291 0.32625-0.49625 0.66834-0.79416 1.0238 2.595-2.3075 4.7729-5.0046 6.4938-8.0904m-6.8692 6.2483c0.87583-1.2933 1.6112-2.7588 2.1971-4.3929-0.73666 0.3075-1.49 0.61042-2.265 0.94167-1.1679 0.495-2.465 1.0246-3.8062 1.5967 0.0188 0.57708 0.0292 1.0375 0.0188 1.4558-0.0333 1.2254-0.16208 2.8742-0.65333 4.4604-0.12458 0.33208-0.245 0.625-0.35583 0.87 1.9471-1.36 3.6292-3.0429 4.8646-4.9317m-8.8867 6.8158c0.35084 0 0.67709-0.0529 0.98959-0.15791 1.2262-0.66417 1.6633-2.1788 1.8212-3.0046 0.22625-1.1679 0.26458-2.4708 0.14583-3.9892-0.0196-0.15959-0.03-0.31834-0.0488-0.47625-0.0196-0.0433-0.0196-0.0958-0.0196-0.14875-1.36 0.59166-2.9029 1.2404-4.4117 1.9083-0.43792 0.18708-0.88458 0.38417-1.3217 0.56167l-0.53875 0.24083c-0.63083 0.26458-1.2638 0.5475-1.8988 0.83667l-0.67201 0.27333c0.13917 0.16833 0.29875 0.32708 0.42708 0.47708 1.0717 1.1962 2.0238 2.0279 2.9988 2.6425 0.63 0.38 1.1883 0.61125 1.7454 0.73167 0.26 0.0758 0.5375 0.10458 0.78333 0.10458m-6.3112 1.2929c1.2979 0 2.5954-0.12958 3.8688-0.39875-0.25458-0.0967-0.53291-0.20167-0.83083-0.35083-1.1775-0.55334-2.3617-1.3654-3.7208-2.5433-0.3175-0.29791-0.65834-0.625-1.0521-1.0142-1.105 0.47708-2.1583 0.95125-3.1579 1.3933l-0.59584 0.275c-0.75 0.34083-1.4708 0.6525-2.1533 0.98083 1.5525 0.67209 3.1388 1.1525 4.705 1.4071 0.93375 0.16958 1.9371 0.25083 2.9371 0.25083m-3.1575 1.1542c-2.1342-0.26917-4.3112-0.89417-6.4696-1.8996-0.13917 0.0775-0.27375 0.12125-0.39417 0.19709-0.20625 0.0775-0.37958 0.16916-0.5625 0.26458-0.65875 0.29875-1.2108 0.5625-1.6967 0.79333 3.4417 0.87 7.0179 1.1296 10.546 0.77375-0.47542-0.0238-0.96125-0.0625-1.4229-0.12916m26.273-17.549c2.2004-4.7446 3.1617-9.9592 2.7867-15.121-0.0425 0.0096-0.0954 0.0096-0.14417 0.03833l-0.0725 5e-3c-0.63375 0.16417-1.2688 0.37417-1.8008 0.53792-1.2517 0.39-2.4608 0.84167-3.505 1.2217l0.0342 0.14875c0.0579 0.3125 0.11084 0.64458 0.15792 0.98083 0.515 3.8304 0.49167 7.5608-0.0954 11.04-0.0967 0.65417-0.25458 1.3608-0.4525 2.1721 0.88459-0.3125 1.6446-0.55666 2.3983-0.81125z" fill="#ffd51d"/>
</svg>