<?xml version="1.0" encoding="UTF-8"?>
<svg version="1.1" xmlns="http://www.w3.org/2000/svg" width="1280" height="768">
<path d="M0 0 C422.4 0 844.8 0 1280 0 C1280 253.44 1280 506.88 1280 768 C857.6 768 435.2 768 0 768 C0 514.56 0 261.12 0 0 Z " fill="#00498F" transform="translate(0,0)"/>
<path d="M0 0 C0.76627716 -0.00133942 1.53255432 -0.00267883 2.322052 -0.00405884 C13.40361223 0.0001564 23.90671561 0.47037607 34.6875 3.25 C35.59242188 3.44335938 36.49734375 3.63671875 37.4296875 3.8359375 C72.67934182 12.0858566 103.56124506 36.06763415 122.76171875 66.3515625 C142.80356168 99.20508897 149.30634821 137.90617743 140.296875 175.4765625 C137.9179098 184.42302185 134.62740322 192.88345799 130.6875 201.25 C130.33139648 202.00780762 129.97529297 202.76561523 129.60839844 203.54638672 C122.71275784 217.92420079 113.60369475 229.65154308 102.6875 241.25 C102.089375 241.91257812 101.49125 242.57515625 100.875 243.2578125 C86.79578335 258.24732333 67.7998373 268.29618085 48.6875 275.25 C47.718125 275.62898438 46.74875 276.00796875 45.75 276.3984375 C31.04101111 281.83259173 16.00853778 282.54124095 0.5 282.625 C-0.21230774 282.63285522 -0.92461548 282.64071045 -1.6585083 282.64880371 C-15.79917569 282.77005012 -29.19114654 280.76365782 -42.625 276.1875 C-43.500354 275.89077393 -44.37570801 275.59404785 -45.27758789 275.28833008 C-65.71112138 268.06060391 -82.82563676 256.17961478 -98.3125 241.25 C-99.27736328 240.36248047 -99.27736328 240.36248047 -100.26171875 239.45703125 C-123.5842412 217.4392653 -138.11633021 181.90328851 -139.44042969 150.18554688 C-139.76615043 136.23454659 -139.66709953 122.83270503 -136.3125 109.25 C-136.08699463 108.26773438 -136.08699463 108.26773438 -135.85693359 107.265625 C-127.45128392 71.23393045 -103.31719943 40.22138036 -72.41064453 20.52539062 C-66.59624196 16.99101327 -60.48976228 14.08460974 -54.3125 11.25 C-52.84296875 10.54423828 -52.84296875 10.54423828 -51.34375 9.82421875 C-35.09528807 2.45307661 -17.65459243 0.01805005 0 0 Z " fill="#FAD21F" transform="translate(664.3125,242.75)"/>
<path d="M0 0 C45.21 0 90.42 0 137 0 C137 9.9 137 19.8 137 30 C91.79 30 46.58 30 0 30 C0 20.1 0 10.2 0 0 Z " fill="#FBD31E" transform="translate(361,369)"/>
<path d="M0 0 C6.439933 -0.36128656 12.19698955 0.99773008 18.4375 2.5 C19.45521484 2.73847656 20.47292969 2.97695313 21.52148438 3.22265625 C24.01603368 3.80823121 26.50868641 4.40083542 29 5 C25.93971994 22.17240081 22.56616687 39.27565807 19.125 56.375 C15.18617957 75.9523192 11.38161312 95.54966068 7.71533203 115.1796875 C6.67675555 120.72632393 5.62107854 126.26965175 4.5625 131.8125 C4.39830566 132.67335205 4.23411133 133.5342041 4.06494141 134.42114258 C3.7102085 136.28080896 3.35515231 138.14041367 3 140 C-23.8484252 136.1515748 -23.8484252 136.1515748 -26 134 C-25.82463669 126.4802361 -24.40101755 119.06565625 -22.953125 111.70703125 C-22.74547516 110.62991882 -22.53782532 109.5528064 -22.32388306 108.4430542 C-21.63845786 104.89836827 -20.94461115 101.35539645 -20.25 97.8125 C-19.76566386 95.32351043 -19.28145409 92.83449628 -18.79736328 90.34545898 C-15.04691508 71.11956599 -11.19818375 51.91318382 -7.31059265 32.71459579 C-6.87465455 30.56079328 -6.43953268 28.40682704 -6.0045166 26.25283813 C-5.19189773 22.23154294 -4.37377905 18.21138809 -3.5546875 14.19140625 C-3.31037994 12.98264832 -3.06607239 11.77389038 -2.81436157 10.52850342 C-2.58928925 9.42927551 -2.36421692 8.33004761 -2.13232422 7.19750977 C-1.93677948 6.23692154 -1.74123474 5.27633331 -1.5397644 4.28663635 C-1 2 -1 2 0 0 Z " fill="#FBD31E" transform="translate(619,547)"/>
<path d="M0 0 C3.25493568 8.60092096 4.74116022 17.48806432 6.375 26.5 C6.94249139 29.5942731 7.51356512 32.68787632 8.0859375 35.78125 C8.30921471 36.98979141 8.30921471 36.98979141 8.53700256 38.2227478 C10.57229707 49.17192091 12.79685187 60.08364093 15 71 C15.50795255 73.52113064 16.0157603 76.04229046 16.5234375 78.56347656 C16.6533886 79.20880718 16.78333969 79.8541378 16.9172287 80.5190239 C17.98062568 85.80046822 19.04274923 91.08216812 20.10390472 96.36406326 C20.78367895 99.74708066 21.46460845 103.1298588 22.14770508 106.51220703 C22.95189402 110.49448528 23.75146305 114.47767875 24.55078125 118.4609375 C24.79758133 119.67945404 25.04438141 120.89797058 25.29866028 122.15341187 C25.52277084 123.2737381 25.74688141 124.39406433 25.9777832 125.54833984 C26.17588089 126.53216644 26.37397858 127.51599304 26.57807922 128.52963257 C27 131 27 131 27 134 C23.48210157 134.84605975 19.96027995 135.67452275 16.4375 136.5 C15.44685547 136.73847656 14.45621094 136.97695312 13.43554688 137.22265625 C12.46552734 137.44824219 11.49550781 137.67382812 10.49609375 137.90625 C9.61107178 138.11572266 8.7260498 138.32519531 7.81420898 138.54101562 C4.51113207 139.07973208 1.34193656 139.02884035 -2 139 C-5.31078311 126.43679 -7.94010039 113.78133402 -10.44140625 101.03515625 C-10.85418539 98.9463464 -11.26727245 96.85759738 -11.6806488 94.76890564 C-12.54111963 90.41681475 -13.39894791 86.06421484 -14.25463867 81.71118164 C-15.34213199 76.17926095 -16.43465253 70.6483488 -17.52897739 65.11777592 C-18.38066833 60.81192847 -19.23047691 56.50571127 -20.07966423 52.19936943 C-20.48150932 50.16189584 -20.8837258 48.12449546 -21.28634834 46.08717537 C-23.17037956 36.54589057 -25.03731727 27.00163561 -26.76928711 17.43139648 C-26.89588243 16.74720422 -27.02247774 16.06301195 -27.15290928 15.35808659 C-27.77349632 11.86292306 -28.1341538 8.5501391 -28 5 C-23.56516079 3.42833125 -19.17283027 2.3093351 -14.5625 1.375 C-13.30566406 1.11460938 -12.04882812 0.85421875 -10.75390625 0.5859375 C-7.09918113 0.01548093 -3.69167273 -0.10479587 0 0 Z " fill="#FBD31E" transform="translate(621,82)"/>
<path d="M0 0 C3.53567665 1.30187829 6.50074386 2.84559036 9.609375 4.96875 C10.44597656 5.53980469 11.28257812 6.11085938 12.14453125 6.69921875 C13.43423828 7.59060547 13.43423828 7.59060547 14.75 8.5 C16.06291016 9.39138672 16.06291016 9.39138672 17.40234375 10.30078125 C23.87221443 14.74442887 23.87221443 14.74442887 25 17 C24.21444702 18.62156677 24.21444702 18.62156677 22.91162109 20.58374023 C22.42343903 21.32735306 21.93525696 22.07096588 21.43228149 22.83711243 C20.88486298 23.65270126 20.33744446 24.4682901 19.7734375 25.30859375 C19.20708588 26.165634 18.64073425 27.02267426 18.05722046 27.90568542 C16.17106951 30.75496678 14.27319236 33.59622922 12.375 36.4375 C11.05707843 38.42265675 9.73970263 40.40817594 8.42285156 42.39404297 C-1.93420973 57.99063608 -12.40585153 73.51048111 -22.89770508 89.01660156 C-32.07519002 102.58597969 -41.11471292 116.23736652 -50 130 C-53.5995593 128.67222482 -56.66099373 127.06824929 -59.86328125 124.9609375 C-60.74951172 124.38085938 -61.63574219 123.80078125 -62.54882812 123.203125 C-63.46083984 122.59984375 -64.37285156 121.9965625 -65.3125 121.375 C-66.24384766 120.76398438 -67.17519531 120.15296875 -68.13476562 119.5234375 C-70.42581376 118.01957 -72.71408719 116.51165714 -75 115 C-74.38379382 111.94429589 -73.40061285 109.78278897 -71.68457031 107.18920898 C-71.19654434 106.44575729 -70.70851837 105.7023056 -70.20570374 104.93632507 C-69.40005226 103.72841057 -69.40005226 103.72841057 -68.578125 102.49609375 C-68.01455795 101.64179276 -67.45099091 100.78749176 -66.87034607 99.90730286 C-65.00271811 97.08013547 -63.12657646 94.25873412 -61.25 91.4375 C-59.94218293 89.46275135 -58.63465112 87.48781375 -57.32739258 85.51269531 C-45.25840206 67.30142857 -33.03483439 49.19446646 -20.79368591 31.09869385 C-13.809068 20.76806376 -6.89218581 10.39250191 0 0 Z " fill="#FCD31E" transform="translate(560,516)"/>
<path d="M0 0 C3.31851886 1.44741117 5.50034862 3.25302334 8.04962158 5.80911255 C8.84605072 6.60279236 9.64247986 7.39647217 10.46304321 8.21420288 C11.75992569 9.52187119 11.75992569 9.52187119 13.08300781 10.85595703 C14.00042755 11.77308472 14.91784729 12.6902124 15.86306763 13.63513184 C18.37551297 16.1470036 20.88174606 18.66499203 23.38691044 21.18412256 C26.00718777 23.8169062 28.63313362 26.44402353 31.25848389 29.07174683 C36.22768882 34.04716681 41.19177369 39.02766287 46.1540401 44.01000202 C51.80424663 49.68256673 57.46013628 55.34945043 63.11651087 61.01586366 C74.7506767 72.67093207 86.37768345 84.33311532 98 96 C97.04162906 97.12390359 96.08243549 98.24710574 95.12289429 99.37001038 C94.58883154 99.99556855 94.05476879 100.62112673 93.50452232 101.26564121 C91.85464832 103.16755614 90.14023287 104.97429763 88.3515625 106.74609375 C87.43310547 107.6597168 87.43310547 107.6597168 86.49609375 108.59179688 C85.56990234 109.50541992 85.56990234 109.50541992 84.625 110.4375 C83.98433594 111.07365234 83.34367188 111.70980469 82.68359375 112.36523438 C81.12469121 113.91250332 79.56348584 115.45736492 78 117 C74.68148114 115.55258883 72.49965138 113.74697666 69.95037842 111.19088745 C69.15394928 110.39720764 68.35752014 109.60352783 67.53695679 108.78579712 C66.67236847 107.91401825 65.80778015 107.04223938 64.91699219 106.14404297 C63.99957245 105.22691528 63.08215271 104.3097876 62.13693237 103.36486816 C59.62448703 100.8529964 57.11825394 98.33500797 54.61308956 95.81587744 C51.99281223 93.1830938 49.36686638 90.55597647 46.74151611 87.92825317 C41.77231118 82.95283319 36.80822631 77.97233713 31.8459599 72.98999798 C26.19575337 67.31743327 20.53986372 61.65054957 14.88348913 55.98413634 C3.2493233 44.32906793 -8.37768345 32.66688468 -20 21 C-19.04162906 19.87609641 -18.08243549 18.75289426 -17.12289429 17.62998962 C-16.32180017 16.69165236 -16.32180017 16.69165236 -15.50452232 15.73435879 C-13.85464832 13.83244386 -12.14023287 12.02570237 -10.3515625 10.25390625 C-9.73925781 9.64482422 -9.12695312 9.03574219 -8.49609375 8.40820312 C-7.87863281 7.79912109 -7.26117187 7.19003906 -6.625 6.5625 C-5.98433594 5.92634766 -5.34367188 5.29019531 -4.68359375 4.63476562 C-3.12469121 3.08749668 -1.56348584 1.54263508 0 0 Z " fill="#FCD31D" transform="translate(795,493)"/>
<path d="M0 0 C3.42482707 1.61776117 5.65690522 3.42343244 8.328125 6.1328125 C9.12734375 6.93847656 9.9265625 7.74414062 10.75 8.57421875 C11.575 9.41597656 12.4 10.25773438 13.25 11.125 C14.09046875 11.97449219 14.9309375 12.82398438 15.796875 13.69921875 C17.86915683 15.79504923 19.93662393 17.89540713 22 20 C17.29596268 25.65388366 12.26744481 30.86892527 7.05712891 36.05639648 C6.1784314 36.93524002 5.29973389 37.81408356 4.39440918 38.71955872 C2.00407883 41.10931511 -0.38843608 43.4968428 -2.78198195 45.88337588 C-5.29018525 48.38529346 -7.79552389 50.89007639 -10.30117798 53.39454651 C-15.03762814 58.12789866 -19.77661977 62.85869768 -24.5165478 67.58856684 C-29.91639542 72.97720561 -35.31337627 78.36871174 -40.71012759 83.7604512 C-51.80358268 94.84347658 -62.9006019 105.92292622 -74 117 C-77.42482707 115.38223883 -79.65690522 113.57656756 -82.328125 110.8671875 C-83.12734375 110.06152344 -83.9265625 109.25585938 -84.75 108.42578125 C-85.575 107.58402344 -86.4 106.74226563 -87.25 105.875 C-88.09046875 105.02550781 -88.9309375 104.17601562 -89.796875 103.30078125 C-91.86915683 101.20495077 -93.93662393 99.10459287 -96 97 C-91.29596268 91.34611634 -86.26744481 86.13107473 -81.05712891 80.94360352 C-80.1784314 80.06475998 -79.29973389 79.18591644 -78.39440918 78.28044128 C-76.00407883 75.89068489 -73.61156392 73.5031572 -71.21801805 71.11662412 C-68.70981475 68.61470654 -66.20447611 66.10992361 -63.69882202 63.60545349 C-58.96237186 58.87210134 -54.22338023 54.14130232 -49.4834522 49.41143316 C-44.08360458 44.02279439 -38.68662373 38.63128826 -33.28987241 33.2395488 C-22.19641732 22.15652342 -11.0993981 11.07707378 0 0 Z " fill="#FCD31D" transform="translate(871,158)"/>
<path d="M0 0 C3.31851886 1.44741117 5.50034862 3.25302334 8.04962158 5.80911255 C8.84605072 6.60279236 9.64247986 7.39647217 10.46304321 8.21420288 C11.75992569 9.52187119 11.75992569 9.52187119 13.08300781 10.85595703 C14.00042755 11.77308472 14.91784729 12.6902124 15.86306763 13.63513184 C18.37551297 16.1470036 20.88174606 18.66499203 23.38691044 21.18412256 C26.00718777 23.8169062 28.63313362 26.44402353 31.25848389 29.07174683 C36.22768882 34.04716681 41.19177369 39.02766287 46.1540401 44.01000202 C51.80424663 49.68256673 57.46013628 55.34945043 63.11651087 61.01586366 C74.7506767 72.67093207 86.37768345 84.33311532 98 96 C97.04162906 97.12390359 96.08243549 98.24710574 95.12289429 99.37001038 C94.58883154 99.99556855 94.05476879 100.62112673 93.50452232 101.26564121 C91.85464832 103.16755614 90.14023287 104.97429763 88.3515625 106.74609375 C87.43310547 107.6597168 87.43310547 107.6597168 86.49609375 108.59179688 C85.56990234 109.50541992 85.56990234 109.50541992 84.625 110.4375 C83.98433594 111.07365234 83.34367188 111.70980469 82.68359375 112.36523438 C81.12469121 113.91250332 79.56348584 115.45736492 78 117 C74.68148114 115.55258883 72.49965138 113.74697666 69.95037842 111.19088745 C69.15394928 110.39720764 68.35752014 109.60352783 67.53695679 108.78579712 C66.67236847 107.91401825 65.80778015 107.04223938 64.91699219 106.14404297 C63.99957245 105.22691528 63.08215271 104.3097876 62.13693237 103.36486816 C59.62448703 100.8529964 57.11825394 98.33500797 54.61308956 95.81587744 C51.99281223 93.1830938 49.36686638 90.55597647 46.74151611 87.92825317 C41.77231118 82.95283319 36.80822631 77.97233713 31.8459599 72.98999798 C26.19575337 67.31743327 20.53986372 61.65054957 14.88348913 55.98413634 C3.2493233 44.32906793 -8.37768345 32.66688468 -20 21 C-19.04162906 19.87609641 -18.08243549 18.75289426 -17.12289429 17.62998962 C-16.32180017 16.69165236 -16.32180017 16.69165236 -15.50452232 15.73435879 C-13.85464832 13.83244386 -12.14023287 12.02570237 -10.3515625 10.25390625 C-9.73925781 9.64482422 -9.12695312 9.03574219 -8.49609375 8.40820312 C-7.87863281 7.79912109 -7.26117188 7.19003906 -6.625 6.5625 C-5.98433594 5.92634766 -5.34367187 5.29019531 -4.68359375 4.63476562 C-3.12469121 3.08749668 -1.56348584 1.54263508 0 0 Z " fill="#FCD31E" transform="translate(460,158)"/>
<path d="M0 0 C1.14631653 1.38105774 1.14631653 1.38105774 2.42895508 3.35668945 C2.91691055 4.10045334 3.40486603 4.84421722 3.90760803 5.61051941 C4.43954269 6.43643082 4.97147736 7.26234222 5.51953125 8.11328125 C6.08163803 8.9731514 6.64374481 9.83302155 7.22288513 10.71894836 C8.44736451 12.59313957 9.66879059 14.46932824 10.88757324 16.347229 C14.16166409 21.39083215 17.45846924 26.4195473 20.75390625 31.44921875 C21.43419891 32.48856567 22.11449158 33.5279126 22.81539917 34.59875488 C29.85861239 45.34310719 37.04480786 55.98888906 44.25 66.625 C54.64972907 81.98826759 64.93724053 97.4135514 75 113 C70.7896686 117.58534068 66.04259182 120.93270368 60.875 124.375 C59.65876953 125.21224609 59.65876953 125.21224609 58.41796875 126.06640625 C57.63808594 126.58847656 56.85820313 127.11054688 56.0546875 127.6484375 C55.34812012 128.12458496 54.64155273 128.60073242 53.91357422 129.09130859 C52 130 52 130 49 129 C47.73342896 127.49868774 47.73342896 127.49868774 46.45751953 125.52978516 C45.96964462 124.78610687 45.48176971 124.04242859 44.97911072 123.2762146 C44.45233231 122.45545441 43.92555389 121.63469421 43.3828125 120.7890625 C42.82207535 119.93051666 42.2613382 119.07197083 41.68360901 118.18740845 C40.46452057 116.31945086 39.24904065 114.44913449 38.03671265 112.57678223 C34.77976676 107.54789098 31.49585666 102.53664589 28.21484375 97.5234375 C27.53784927 96.48759521 26.8608548 95.45175293 26.16334534 94.38452148 C19.10754384 83.60334994 11.90810244 72.92119697 4.6875 62.25 C3.46849754 60.44559082 2.24966405 58.64106748 1.03100586 56.83642578 C-3.68147107 49.85959775 -8.39789849 42.8854992 -13.12654114 35.9196167 C-14.31950364 34.15998279 -15.50950594 32.39839782 -16.69799805 30.63574219 C-18.05580122 28.62216131 -19.41880927 26.61207494 -20.78833008 24.60644531 C-21.35962646 23.75663086 -21.93092285 22.90681641 -22.51953125 22.03125 C-23.00526611 21.31517578 -23.49100098 20.59910156 -23.99145508 19.86132812 C-25 18 -25 18 -25 15 C-22.92041016 13.2824707 -22.92041016 13.2824707 -20.0390625 11.42578125 C-18.49605469 10.42514648 -18.49605469 10.42514648 -16.921875 9.40429688 C-15.83390625 8.71400391 -14.7459375 8.02371094 -13.625 7.3125 C-12.54476563 6.61060547 -11.46453125 5.90871094 -10.3515625 5.18554688 C-2.28851585 0 -2.28851585 0 0 0 Z " fill="#FCD31E" transform="translate(510,122)"/>
<path d="M0 0 C5.20698506 2.48033273 8.7480142 6.34067114 12.8125 10.375 C13.61365234 11.14328125 14.41480469 11.9115625 15.24023438 12.703125 C15.99240234 13.44820313 16.74457031 14.19328125 17.51953125 14.9609375 C18.55750854 15.97873291 18.55750854 15.97873291 19.61645508 17.01708984 C21 19 21 19 20.81702518 20.87083054 C19.77819055 23.57803593 18.36593325 25.00303852 16.31114197 27.04962158 C15.51883682 27.84605072 14.72653168 28.64247986 13.91021729 29.46304321 C13.03484314 30.32763153 12.15946899 31.19221985 11.25756836 32.08300781 C10.3405867 33.00042755 9.42360504 33.91784729 8.47883606 34.86306763 C5.964988 37.37777684 3.44199393 39.88312558 0.91727138 42.38691044 C-1.71996696 45.0054021 -4.34871888 47.63238503 -6.9783783 50.25848389 C-11.95892535 55.22970457 -16.94707073 60.19322813 -21.93798298 65.1540401 C-27.61974341 70.80227496 -33.29299332 76.45902505 -38.96554005 82.11651087 C-50.6342417 93.7538501 -62.31359846 105.38043483 -74 117 C-77.42482707 115.38223883 -79.65690522 113.57656756 -82.328125 110.8671875 C-83.12734375 110.06152344 -83.9265625 109.25585938 -84.75 108.42578125 C-85.575 107.58402344 -86.4 106.74226562 -87.25 105.875 C-88.09046875 105.02550781 -88.9309375 104.17601562 -89.796875 103.30078125 C-91.86915683 101.20495077 -93.93662393 99.10459287 -96 97 C-91.29596268 91.34611634 -86.26744481 86.13107473 -81.05712891 80.94360352 C-80.1784314 80.06475998 -79.29973389 79.18591644 -78.39440918 78.28044128 C-76.00407883 75.89068489 -73.61156392 73.5031572 -71.21801805 71.11662412 C-68.70981475 68.61470654 -66.20447611 66.10992361 -63.69882202 63.60545349 C-58.96237186 58.87210134 -54.22338023 54.14130232 -49.4834522 49.41143316 C-44.08360458 44.02279439 -38.68662373 38.63128826 -33.28987241 33.2395488 C-22.19641732 22.15652342 -11.0993981 11.07707378 0 0 Z " fill="#FCD31D" transform="translate(536,493)"/>
<path d="M0 0 C9.37485335 22.15375302 18.65380262 44.34518657 27.81689453 66.58740234 C28.61227102 68.51791752 29.40768119 70.44841881 30.203125 72.37890625 C30.59607758 73.33263123 30.98903015 74.2863562 31.39389038 75.26898193 C34.24133958 82.17432826 37.10876688 89.07118198 39.984375 95.96484375 C40.78332732 97.88238776 41.58223763 99.79994928 42.38110352 101.7175293 C43.52602342 104.46559536 44.67207214 107.21315865 45.82199097 109.95913696 C46.86747084 112.45586465 47.90876466 114.9542997 48.94921875 117.453125 C49.26070862 118.19348495 49.57219849 118.93384491 49.89312744 119.69664001 C52 124.77252539 52 124.77252539 52 127 C47.89980233 128.842305 43.79422392 130.67229455 39.6875 132.5 C38.52025391 133.02464844 37.35300781 133.54929687 36.15039062 134.08984375 C35.03212891 134.58613281 33.91386719 135.08242188 32.76171875 135.59375 C31.2142395 136.28500977 31.2142395 136.28500977 29.63549805 136.99023438 C27 138 27 138 24 138 C23.6503418 137.13052734 23.30068359 136.26105469 22.94042969 135.36523438 C15.5161979 116.91882888 7.99525252 98.51532021 0.33248901 80.16662598 C-0.93834037 77.12298732 -2.20757044 74.07868653 -3.47631836 71.03417969 C-7.2002523 62.09978641 -10.92786247 53.16708969 -14.67936707 44.24423218 C-16.20635422 40.60594425 -17.72414455 36.96387205 -19.23953247 33.32073975 C-19.94951611 31.61967879 -20.66354927 29.92030182 -21.38180542 28.22271729 C-22.3651847 25.89744802 -23.33458567 23.56682572 -24.30078125 21.234375 C-24.59238129 20.55444489 -24.88398132 19.87451477 -25.18441772 19.17398071 C-26.22115051 16.63924329 -27.00029778 14.46572926 -26.99853516 11.70898438 C-25.4617502 9.07879007 -23.51466085 8.54715057 -20.72265625 7.421875 C-19.65208984 6.98359375 -18.58152344 6.5453125 -17.47851562 6.09375 C-16.35123047 5.6503125 -15.22394531 5.206875 -14.0625 4.75 C-12.93908203 4.29109375 -11.81566406 3.8321875 -10.65820312 3.359375 C-2.34474981 0 -2.34474981 0 0 0 Z " fill="#FCD31E" transform="translate(745,534)"/>
<path d="M0 0 C0.90861572 4.09881398 1.8136775 8.19839537 2.71606445 12.29858398 C3.0205319 13.67996116 3.3258125 15.06115949 3.63208008 16.44213867 C6.36285526 28.76016117 8.84733201 41.12284883 11.30319214 53.4982605 C12.28275155 58.42094014 13.27235116 63.34158274 14.26210022 68.26222229 C15.17623921 72.80712306 16.08844214 77.35241088 17.00027561 81.8977747 C17.66479268 85.2098024 18.33005472 88.5216773 18.99682617 91.83325195 C19.78521289 95.74907755 20.57040457 99.66553818 21.35546875 103.58203125 C21.59194626 104.75409622 21.82842377 105.92616119 22.07206726 107.13374329 C26.15593032 127.55030402 26.15593032 127.55030402 26 134 C21.41933484 135.6436084 16.83793837 136.73948825 12.0625 137.625 C11.38509766 137.7590625 10.70769531 137.893125 10.00976562 138.03125 C9.33751953 138.15757812 8.66527344 138.28390625 7.97265625 138.4140625 C7.37718994 138.5270166 6.78172363 138.6399707 6.16821289 138.75634766 C3.10874053 139.10015504 0.07540647 139.03463556 -3 139 C-6.63828462 121.65422321 -10.17978149 104.29659995 -13.4375 86.875 C-15.93558456 73.5241338 -18.52055045 60.19320437 -21.1875 46.875 C-21.34999237 46.06190369 -21.51248474 45.24880737 -21.67990112 44.41107178 C-22.1537563 42.0420068 -22.62910536 39.67324936 -23.10546875 37.3046875 C-23.2580162 36.54590302 -23.41056366 35.78711853 -23.56773376 35.00534058 C-24.39572989 30.91098084 -25.24801119 26.82289573 -26.12744141 22.73925781 C-26.31293045 21.87454865 -26.49841949 21.00983948 -26.68952942 20.118927 C-27.04658233 18.46063598 -27.40714622 16.80309572 -27.77177429 15.14645386 C-28.52279084 11.65823566 -29 8.5858841 -29 5 C-25.48210157 4.15394025 -21.96027995 3.32547725 -18.4375 2.5 C-16.9515332 2.14228516 -16.9515332 2.14228516 -15.43554688 1.77734375 C-14.46552734 1.55175781 -13.49550781 1.32617188 -12.49609375 1.09375 C-11.61107178 0.88427734 -10.7260498 0.67480469 -9.81420898 0.45898438 C-6.5095019 -0.07999796 -3.34253456 -0.0723884 0 0 Z " fill="#FCD31E" transform="translate(714,547)"/>
<path d="M0 0 C6.10033201 1.88555717 12.05965857 4.10221996 18 6.4375 C18.76626709 6.72568604 19.53253418 7.01387207 20.32202148 7.31079102 C25.7804715 9.49820933 25.7804715 9.49820933 26.80953979 11.85041809 C27.03859443 14.43558648 26.56076417 15.8265801 25.54736328 18.2097168 C25.20108887 19.03965652 24.85481445 19.86959625 24.49804688 20.72468567 C24.10939453 21.62378159 23.72074219 22.5228775 23.3203125 23.44921875 C22.72162354 24.87164131 22.72162354 24.87164131 22.11083984 26.32279968 C20.79251684 29.44882942 19.45865419 32.56798404 18.125 35.6875 C17.20434222 37.86422872 16.28492137 40.041481 15.36669922 42.21923828 C13.48983281 46.66841658 11.60802996 51.11545563 9.72265625 55.56103516 C6.15914887 63.97457628 2.65818024 72.41369401 -0.83328247 80.85733032 C-1.8705612 83.36427211 -2.91038223 85.87014499 -3.95092773 88.37573242 C-7.36263957 96.59545768 -10.74852644 104.82488078 -14.09765625 113.0703125 C-15.0684826 115.45367625 -16.03972318 117.83687084 -17.01104736 120.22003174 C-17.91658976 122.44854061 -18.81462777 124.67997409 -19.71240234 126.91162109 C-20.2545267 128.24330909 -20.79698661 129.57486055 -21.33984375 130.90625 C-21.80769287 132.06447266 -22.27554199 133.22269531 -22.75756836 134.41601562 C-24 137 -24 137 -26 138 C-30.28808368 136.70501126 -34.40947201 134.92309658 -38.5625 133.25 C-39.73748047 132.79367187 -40.91246094 132.33734375 -42.12304688 131.8671875 C-43.79657227 131.19816406 -43.79657227 131.19816406 -45.50390625 130.515625 C-46.53330322 130.10602539 -47.5627002 129.69642578 -48.62329102 129.27441406 C-51 128 -51 128 -52 125 C-51.15698167 122.46032668 -50.24076682 120.07288018 -49.1953125 117.6171875 C-48.88528793 116.86798035 -48.57526337 116.11877319 -48.25584412 115.34686279 C-47.2211355 112.85243303 -46.17304225 110.3638537 -45.125 107.875 C-44.39224618 106.11544681 -43.66040924 104.35551154 -42.92944336 102.59521484 C-41.39685627 98.90840315 -39.85898895 95.22386058 -38.31689453 91.54101562 C-36.11383892 86.27740082 -33.92701681 81.00719284 -31.74609375 75.734375 C-28.95005279 68.97588777 -26.14958523 62.21927095 -23.34375 55.46484375 C-20.29560951 48.12636795 -17.25520608 40.7847239 -14.21875 33.44140625 C-13.04599715 30.60686818 -11.87310935 27.77238599 -10.70016479 24.93792725 C-9.94732723 23.1178613 -9.19498002 21.29759244 -8.44314575 19.47711182 C-7.40222293 16.95684757 -6.3595085 14.43733158 -5.31640625 11.91796875 C-5.00888428 11.17204971 -4.7013623 10.42613068 -4.38452148 9.65760803 C-3.02590906 6.38064921 -1.65391798 3.14025389 0 0 Z " fill="#FCD31E" transform="translate(588,534)"/>
<path d="M0 0 C3.38269592 9.18160321 6.14830711 19.15913941 6 29 C-4.06175373 31.02455746 -14.12434897 33.04490058 -24.1875 35.0625 C-24.93197262 35.21179585 -25.67644524 35.36109169 -26.44347763 35.51491165 C-44.93596944 39.22275697 -63.43131093 42.90012131 -81.97616577 46.33868408 C-93.19880317 48.42149466 -104.36000848 50.71760808 -115.49536133 53.22436523 C-117.07546997 53.57543335 -117.07546997 53.57543335 -118.6875 53.93359375 C-119.59886719 54.14040771 -120.51023437 54.34722168 -121.44921875 54.56030273 C-124.01893781 55.00326445 -126.39797318 55.07999474 -129 55 C-129.83785848 50.73004144 -130.66951277 46.45889784 -131.5 42.1875 C-131.73847656 40.97255859 -131.97695313 39.75761719 -132.22265625 38.50585938 C-132.44824219 37.34248047 -132.67382812 36.17910156 -132.90625 34.98046875 C-133.11572266 33.90692139 -133.32519531 32.83337402 -133.54101562 31.72729492 C-134 29 -134 29 -134 26 C-95.60627357 17.56957361 -57.05854055 9.78275438 -18.40429688 2.64404297 C-14.63097128 1.93018519 -10.87369293 1.15422128 -7.12207031 0.33422852 C-4.72135483 -0.04388694 -2.42640956 -0.05553215 0 0 Z " fill="#FCD31E" transform="translate(498,403)"/>
<path d="M0 0 C3.79111532 0.62834505 7.00780452 1.73528803 10.51953125 3.28515625 C11.54111328 3.73310547 12.56269531 4.18105469 13.61523438 4.64257812 C15.19788086 5.34543945 15.19788086 5.34543945 16.8125 6.0625 C17.88693359 6.53494141 18.96136719 7.00738281 20.06835938 7.49414062 C22.71423376 8.65832536 25.35798995 9.82707832 28 11 C24.29530251 21.08570942 20.39345482 31.05979838 16.22329712 40.96188354 C14.59024338 44.84033831 12.96782335 48.72324708 11.34375 52.60546875 C10.99758133 53.43226639 10.65141266 54.25906403 10.29475403 55.11091614 C5.93195151 65.53846186 1.62358845 75.98849615 -2.6875 86.4375 C-3.49802028 88.40137816 -4.30856695 90.36524544 -5.11914062 92.32910156 C-6.30154567 95.19388888 -7.48391971 98.05868895 -8.6661377 100.92355347 C-12.16816188 109.40947932 -15.67641122 117.89282124 -19.1875 126.375 C-19.68660889 127.5808374 -20.18571777 128.7866748 -20.69995117 130.02905273 C-21.79983538 132.68608987 -22.89983242 135.34308019 -24 138 C-30.06149265 136.02786542 -36.0640569 133.94912587 -42 131.625 C-42.76183594 131.3465625 -43.52367187 131.068125 -44.30859375 130.78125 C-49.72110164 128.63940196 -49.72110164 128.63940196 -50.91699219 125.89770508 C-51.03626362 121.73407985 -49.47387688 118.45932964 -47.828125 114.72265625 C-47.4789502 113.90066742 -47.12977539 113.07867859 -46.77001953 112.23178101 C-46.00891601 110.44427347 -45.24177462 108.65932761 -44.46936035 106.87667847 C-43.23201061 104.02098204 -42.00992901 101.15919149 -40.79199219 98.29516602 C-39.51028643 95.28144432 -38.22769749 92.26813653 -36.94049072 89.25675964 C-32.69339656 79.3171899 -28.55830367 69.33275565 -24.44387817 59.337677 C-23.25423181 56.44777993 -22.06280644 53.55862252 -20.87084961 50.66967773 C-18.57885053 45.11382493 -16.28921115 39.55700199 -14 34 C-13.26840305 32.22444203 -12.53679513 30.44888858 -11.80517578 28.67333984 C-7.86755189 19.11661506 -3.9322938 9.55891921 0 0 Z " fill="#FCD31E" transform="translate(769,96)"/>
<path d="M0 0 C5.67535388 0.61036498 10.44573787 2.66200489 15.64453125 4.875 C16.59011902 5.2713414 17.53570679 5.6676828 18.50994873 6.07603455 C21.61327979 7.37820639 24.71282577 8.68915029 27.8125 10 C29.97813818 10.91029126 32.14407609 11.81986975 34.31030273 12.72875977 C38.73450024 14.585341 43.15759935 16.44450456 47.58007812 18.30517578 C56.04916282 21.86456586 64.53704392 25.37816255 73.02670288 28.88812256 C75.54769647 29.93137392 78.06762555 30.97715154 80.5871582 32.02392578 C87.75152335 35.00021309 94.91740092 37.97158231 102.1013031 40.90046692 C105.04843604 42.10360447 107.99215019 43.3149516 110.93527222 44.52786255 C112.29750878 45.08677478 113.66135762 45.64177556 115.02688599 46.19259644 C116.87611804 46.9388062 118.71950364 47.69945696 120.5625 48.4609375 C122.11130859 49.09201416 122.11130859 49.09201416 123.69140625 49.73583984 C126 51 126 51 127 54 C126.19555664 56.63549805 126.19555664 56.63549805 124.91015625 59.76171875 C124.45576172 60.87998047 124.00136719 61.99824219 123.53320312 63.15039062 C123.04787109 64.31763672 122.56253906 65.48488281 122.0625 66.6875 C121.58103516 67.86634766 121.09957031 69.04519531 120.60351562 70.25976562 C119.41074224 73.17674608 118.20927701 76.0898314 117 79 C111.9688382 78.29253263 107.53995628 76.29305562 102.890625 74.34375 C101.9883316 73.9697406 101.08603821 73.5957312 100.15640259 73.21038818 C97.18580504 71.97786822 94.21792152 70.73894838 91.25 69.5 C89.17091429 68.63596332 87.0916476 67.772362 85.01220703 66.90917969 C80.74643405 65.13771898 76.48168975 63.36381556 72.21777344 61.58789062 C66.51516176 59.21328903 60.80918862 56.84689464 55.1015625 54.484375 C33.0536208 45.35673075 11.0231486 36.18728534 -11 27 C-9.35556245 22.87444219 -7.7092146 18.7496494 -6.0625 14.625 C-5.59392578 13.449375 -5.12535156 12.27375 -4.64257812 11.0625 C-4.19462891 9.94101562 -3.74667969 8.81953125 -3.28515625 7.6640625 C-2.87144775 6.62717285 -2.45773926 5.5902832 -2.03149414 4.52197266 C-1 2 -1 2 0 0 Z " fill="#FCD31E" transform="translate(389,254)"/>
<path d="M0 0 C3.3558372 3.08245341 4.74007506 6.66203705 6.4140625 10.8203125 C6.74071396 11.61409302 7.06736542 12.40787354 7.40391541 13.22570801 C8.48455226 15.85601843 9.55466624 18.49048215 10.625 21.125 C11.38454868 22.97867537 12.14489674 24.83202338 12.90600586 26.68505859 C14.48873356 30.5400978 16.0679907 34.39653247 17.64501953 38.25390625 C20.90356164 46.21555228 24.21001806 54.15718875 27.51367188 62.10018921 C29.61238656 67.15235872 31.70023588 72.20903206 33.79074097 77.26460266 C36.00896353 82.62306145 38.24498263 87.97378015 40.49150085 93.32043457 C42.01262485 96.94544013 43.52478996 100.57414212 45.03536987 104.20355225 C45.75651713 105.9302258 46.48166093 107.65523611 47.21096802 109.378479 C48.21610747 111.75465513 49.20722553 114.13622421 50.1953125 116.51953125 C50.49643448 117.22168259 50.79755646 117.92383392 51.10780334 118.64726257 C52.17057221 121.24137864 52.99885098 123.48310406 53.00512695 126.30639648 C51.45602669 128.91657586 49.50530547 129.45661997 46.72265625 130.578125 C45.65208984 131.01640625 44.58152344 131.4546875 43.47851562 131.90625 C42.35123047 132.3496875 41.22394531 132.793125 40.0625 133.25 C38.93908203 133.70890625 37.81566406 134.1678125 36.65820312 134.640625 C28.34474981 138 28.34474981 138 26 138 C16.62502296 115.84595469 7.33747435 93.65750299 -1.81469727 71.41040039 C-5.84604773 61.61447736 -9.90404003 51.83121901 -14.01953125 42.0703125 C-15.21341972 39.22881812 -16.40654943 36.38700647 -17.59939575 33.54507446 C-18.36197047 31.73403282 -19.1279441 29.92441832 -19.89743042 28.11630249 C-20.95569963 25.62917673 -22.00245627 23.13749789 -23.046875 20.64453125 C-23.52185173 19.54173325 -23.52185173 19.54173325 -24.00642395 18.41665649 C-26.11381795 13.34145386 -26.11381795 13.34145386 -25 10 C-22.59155273 8.74145508 -22.59155273 8.74145508 -19.43359375 7.51953125 C-18.30888672 7.07802734 -17.18417969 6.63652344 -16.02539062 6.18164062 C-14.24938477 5.50391602 -14.24938477 5.50391602 -12.4375 4.8125 C-11.24962891 4.34908203 -10.06175781 3.88566406 -8.83789062 3.40820312 C-5.89567454 2.26203863 -2.94978472 1.12651125 0 0 Z " fill="#FCD31E" transform="translate(562,96)"/>
<path d="M0 0 C1.70284849 4.0979661 3.38461211 8.20425777 5.0625 12.3125 C5.54783203 13.47974609 6.03316406 14.64699219 6.53320312 15.84960938 C6.98759766 16.96787109 7.44199219 18.08613281 7.91015625 19.23828125 C8.33433838 20.26993408 8.75852051 21.30158691 9.19555664 22.36450195 C10 25 10 25 9 28 C6.49375781 29.30324594 4.05865784 30.41507486 1.453125 31.484375 C0.66800034 31.81640427 -0.11712433 32.14843353 -0.92604065 32.49052429 C-3.52959592 33.58792102 -6.13956044 34.66909251 -8.75 35.75 C-10.57866814 36.51629532 -12.40703364 37.28331323 -14.23510742 38.05102539 C-27.37182542 43.55312944 -40.56243808 48.92373314 -53.77856445 54.23193359 C-62.43891013 57.71512879 -71.06466956 61.27103551 -79.6640625 64.90234375 C-80.64616196 65.31651047 -81.62826141 65.73067719 -82.64012146 66.15739441 C-87.45237837 68.18798272 -92.26125591 70.22608165 -97.06567383 72.27514648 C-98.81321749 73.01438789 -100.56085288 73.75341247 -102.30859375 74.4921875 C-103.49668137 75.00355507 -103.49668137 75.00355507 -104.70877075 75.5252533 C-108.80980044 77.25119901 -112.53631154 78.48988952 -117 79 C-118.70600233 75.09113611 -120.38652672 71.17182235 -122.0625 67.25 C-122.54783203 66.13882813 -123.03316406 65.02765625 -123.53320312 63.8828125 C-123.98759766 62.81289063 -124.44199219 61.74296875 -124.91015625 60.640625 C-125.54642944 59.16384277 -125.54642944 59.16384277 -126.19555664 57.65722656 C-127.07038575 54.76750273 -127.10022136 53.75462876 -126 51 C-124.40930176 49.9120636 -124.40930176 49.9120636 -122.31445312 49.0715332 C-121.52430817 48.74564713 -120.73416321 48.41976105 -119.92007446 48.08399963 C-119.04926239 47.74303757 -118.17845032 47.4020755 -117.28125 47.05078125 C-116.37329681 46.68101669 -115.46534363 46.31125214 -114.52987671 45.93028259 C-111.52541305 44.7102497 -108.51284115 43.51167781 -105.5 42.3125 C-103.40184451 41.46420063 -101.30435746 40.61424623 -99.20751953 39.76269531 C-94.90158796 38.01538043 -90.59295108 36.27500569 -86.28222656 34.53955078 C-77.96031718 31.18323482 -69.67339595 27.74387857 -61.38922119 24.29571533 C-58.88135159 23.25264176 -56.37228027 22.21251484 -53.86279297 21.17333984 C-45.41434579 17.67378468 -36.97527734 14.15303755 -28.546875 10.60546875 C-26.04180458 9.55330862 -23.53658026 8.50151577 -21.03131104 7.4498291 C-18.67788177 6.45974723 -16.3269645 5.46386552 -13.97607422 4.46777344 C-12.55969062 3.8727604 -11.14319335 3.27801788 -9.7265625 2.68359375 C-8.764086 2.27248604 -8.764086 2.27248604 -7.78216553 1.85307312 C-4.99897918 0.69171741 -3.05271565 0 0 0 Z " fill="#FCD31E" transform="translate(506,435)"/>
<path d="M0 0 C6.1662514 -0.26475595 11.83771652 0.73916557 17.875 1.9375 C18.83664062 2.11990234 19.79828125 2.30230469 20.7890625 2.49023438 C27.86431173 3.86431173 27.86431173 3.86431173 29 5 C28.84889137 12.81042716 27.26600957 20.48492422 25.69921875 28.10913086 C25.46659332 29.26498688 25.2339679 30.4208429 24.99429321 31.61172485 C24.23096062 35.39725418 23.45933577 39.18103983 22.6875 42.96484375 C22.15211786 45.60732272 21.61845085 48.25014732 21.0847168 50.89295959 C19.96885597 56.41355645 18.8487579 61.93327874 17.72558594 67.45239258 C16.14225338 75.23271342 14.5667406 83.01460275 12.99271965 90.79681194 C11.76748604 96.85312761 10.54017161 102.90902189 9.3125 108.96484375 C9.05093109 110.25518965 8.78936218 111.54553555 8.51986694 112.87498283 C7.78126831 116.51575606 7.04129664 120.15624707 6.30078125 123.79663086 C6.08152985 124.87770615 5.86227844 125.95878143 5.63638306 127.07261658 C5.43451385 128.06350281 5.23264465 129.05438904 5.0246582 130.07530212 C4.76251274 131.36466124 4.76251274 131.36466124 4.49507141 132.68006802 C4.04250733 134.80080831 3.54094715 136.90027386 3 139 C-6.9246265 138.56279178 -16.3722704 136.27718577 -26 134 C-25.44988066 127.45307278 -24.55677756 121.09505433 -23.22167969 114.66430664 C-23.04424728 113.78938065 -22.86681488 112.91445465 -22.68400574 112.01301575 C-22.10116824 109.14445011 -21.5114695 106.27733995 -20.921875 103.41015625 C-20.50879795 101.38172911 -20.09623035 99.35319815 -19.68414307 97.3245697 C-18.59865687 91.98628991 -17.50768213 86.64914837 -16.4151001 81.31231689 C-14.4735268 71.82538745 -12.54041775 62.33673389 -10.609375 52.84765625 C-10.30047585 51.33180372 -10.30047585 51.33180372 -9.9853363 49.78532791 C-7.31759832 36.68452578 -4.7215898 23.57763592 -2.36907959 10.41603088 C-2.19733215 9.45688278 -2.02558472 8.49773468 -1.84863281 7.50952148 C-1.70645325 6.6999852 -1.56427368 5.89044891 -1.41778564 5.05638123 C-1 3 -1 3 0 0 Z " fill="#FCD31E" transform="translate(711,82)"/>
<path d="M0 0 C3.5995593 1.32777518 6.66099373 2.93175071 9.86328125 5.0390625 C10.74951172 5.61914062 11.63574219 6.19921875 12.54882812 6.796875 C13.46083984 7.40015625 14.37285156 8.0034375 15.3125 8.625 C16.70952148 9.54152344 16.70952148 9.54152344 18.13476562 10.4765625 C20.42581376 11.98043 22.71408719 13.48834286 25 15 C24.36898791 18.24460176 23.21846095 20.4916035 21.39892578 23.23925781 C20.58139328 24.48270966 20.58139328 24.48270966 19.74734497 25.75128174 C19.15267426 26.64289001 18.55800354 27.53449829 17.9453125 28.453125 C17.32913055 29.38614441 16.71294861 30.31916382 16.07809448 31.28045654 C14.09902984 34.27385144 12.11196435 37.26184459 10.125 40.25 C8.82503127 42.21582218 7.52554697 44.18196479 6.2265625 46.1484375 C0.12892619 55.36526044 -6.01904752 64.54279599 -12.30160522 73.63464355 C-15.86135305 78.78646456 -19.34852378 83.98335586 -22.80761719 89.20336914 C-25.35462013 93.04108304 -27.91305246 96.87119849 -30.46875 100.703125 C-31.62764192 102.44138108 -32.7864957 104.17966259 -33.9453125 105.91796875 C-41.97265625 117.95898438 -41.97265625 117.95898438 -50 130 C-55.48996705 127.96560054 -59.98764493 124.89194139 -64.8125 121.625 C-65.69615234 121.0475 -66.57980469 120.47 -67.49023438 119.875 C-68.74223633 119.02808594 -68.74223633 119.02808594 -70.01953125 118.1640625 C-70.78370361 117.65311035 -71.54787598 117.1421582 -72.33520508 116.61572266 C-73.15927856 115.81593994 -73.15927856 115.81593994 -74 115 C-74 110.38533672 -73.19081358 109.35391481 -70.60546875 105.66015625 C-69.50211182 104.05938232 -69.50211182 104.05938232 -68.37646484 102.42626953 C-67.98489197 101.86385559 -67.59331909 101.30144165 -67.18988037 100.72198486 C-65.22760229 97.88219254 -63.33028257 94.9998016 -61.42578125 92.12109375 C-60.600084 90.879133 -59.77398144 89.63744163 -58.94750977 88.39599609 C-58.30617599 87.43243195 -58.30617599 87.43243195 -57.65188599 86.44940186 C-57.20988861 85.78547424 -56.76789124 85.12154663 -56.3125 84.4375 C-55.62376297 83.40293671 -55.62376297 83.40293671 -54.92111206 82.34747314 C-46.35549482 69.48676833 -37.71464907 56.67759148 -29.0625 43.875 C-19.23788143 29.33721336 -9.4750939 14.76903452 0 0 Z " fill="#FCD31E" transform="translate(823,122)"/>
<path d="M0 0 C6.67360616 0.54438952 13.10972439 1.50669673 19.6484375 2.93359375 C21.53441693 3.33442373 23.4204036 3.73521966 25.30639648 4.13598633 C26.29356659 4.34784576 27.28073669 4.5597052 28.29782104 4.77798462 C49.39524386 9.29968292 70.5488026 13.48445138 91.74560547 17.51147461 C93.78744717 17.89951222 95.82927678 18.28761352 97.87109375 18.67578125 C98.85440674 18.86258957 99.83771973 19.04939789 100.85083008 19.24186707 C112.24954809 21.41560725 123.62542408 23.70376688 135 26 C134.02385066 35.46718949 134.02385066 35.46718949 133.0625 39.74609375 C132.80339844 40.9072168 132.80339844 40.9072168 132.5390625 42.09179688 C132.27222656 43.25291992 132.27222656 43.25291992 132 44.4375 C131.82210937 45.23865234 131.64421875 46.03980469 131.4609375 46.86523438 C130.13827285 52.7234543 130.13827285 52.7234543 129 55 C120.99997291 54.46610623 113.24262661 52.95571539 105.40548706 51.33374023 C101.52778643 50.53172595 97.64666829 49.7465899 93.765625 48.9609375 C92.96076157 48.7977301 92.15589813 48.63452271 91.3266449 48.46636963 C83.47908444 46.88163588 75.61334958 45.39976537 67.74346924 43.93063354 C43.41008081 39.38643879 19.1295947 34.53399537 -5 29 C-4.35963063 22.37386221 -3.29028836 15.95287291 -1.9375 9.4375 C-1.75123047 8.52419922 -1.56496094 7.61089844 -1.37304688 6.66992188 C-0.91891849 4.44585724 -0.46048677 2.22275381 0 0 Z " fill="#FCD31E" transform="translate(369,310)"/>
<path d="M0 0 C3.68176839 1.31938151 6.46600587 2.92516575 9.5625 5.30078125 C14.65960968 9.08368615 19.88029968 12.62404572 25.1875 16.10546875 C26.03836685 16.66379395 26.8892337 17.22211914 27.7658844 17.79736328 C29.57050517 18.97995853 31.3756192 20.16180137 33.18118286 21.34295654 C51.88764122 33.58386245 70.47085113 45.99878391 88.97460938 58.54370117 C97.24518141 64.14708072 105.51161927 69.72919309 114 75 C113.35897253 78.57816465 111.86626089 80.99038931 109.83984375 83.984375 C109.21142578 84.91894531 108.58300781 85.85351562 107.93554688 86.81640625 C107.27619141 87.78449219 106.61683594 88.75257813 105.9375 89.75 C105.27427734 90.73355469 104.61105469 91.71710938 103.92773438 92.73046875 C102.29028943 95.15718572 100.64756564 97.58014787 99 100 C95.85933565 99.37659389 93.66181566 98.32032738 90.9987793 96.55761719 C90.21701828 96.04405167 89.43525726 95.53048615 88.62980652 95.00135803 C87.78646255 94.43887863 86.94311859 93.87639923 86.07421875 93.296875 C85.18765091 92.71179672 84.30108307 92.12671844 83.38764954 91.52391052 C80.4837367 89.60503992 77.58552276 87.67775244 74.6875 85.75 C72.67272697 84.41546808 70.65775155 83.08124168 68.64257812 81.74731445 C56.17404962 73.48402417 43.75508962 65.14951799 31.39111328 56.73071289 C20.99139511 49.65134562 10.53399413 42.66019235 0.0625 35.6875 C-0.74759521 35.14805756 -1.55769043 34.60861511 -2.39233398 34.05282593 C-6.92715593 31.03361179 -11.46308954 28.01607475 -16 25 C-14.49588671 21.8110216 -12.70530316 18.94245199 -10.7421875 16.015625 C-10.11699219 15.08105469 -9.49179687 14.14648438 -8.84765625 13.18359375 C-7.87119141 11.73146484 -7.87119141 11.73146484 -6.875 10.25 C-5.88693359 8.77466797 -5.88693359 8.77466797 -4.87890625 7.26953125 C-3.25467521 4.84495448 -1.62830491 2.4218419 0 0 Z " fill="#FCD31E" transform="translate(420,202)"/>
<path d="M0 0 C1.71319166 2.30516628 3.29862938 4.61526516 4.86328125 7.01953125 C5.35852798 7.76801331 5.85377472 8.51649536 6.36402893 9.28765869 C7.44706987 10.92597647 8.52697592 12.56636977 9.60418701 14.20852661 C12.53374057 18.6740312 15.48575905 23.12467712 18.43359375 27.578125 C19.35909027 28.97859825 19.35909027 28.97859825 20.30328369 30.40736389 C26.48749731 39.75856496 32.75488506 49.05274974 39.03466797 58.3399353 C42.06957282 62.82973642 45.0988959 67.32330123 48.12890625 71.81640625 C51.49006817 76.80022516 54.85230694 81.78328815 58.22216797 86.76123047 C60.65172469 90.35049617 63.07495256 93.94394367 65.49298096 97.54098511 C66.36398206 98.83411091 67.2374297 100.12559261 68.11346436 101.41531372 C69.29686858 103.15809449 70.4717358 104.9063197 71.64453125 106.65625 C72.29784424 107.62369141 72.95115723 108.59113281 73.62426758 109.58789062 C75 112 75 112 75 115 C72.92041016 116.7175293 72.92041016 116.7175293 70.0390625 118.57421875 C69.01039063 119.24130859 67.98171875 119.90839844 66.921875 120.59570312 C65.28992188 121.63114258 65.28992188 121.63114258 63.625 122.6875 C62.54476562 123.38939453 61.46453125 124.09128906 60.3515625 124.81445312 C52.28851585 130 52.28851585 130 50 130 C48.85368347 128.61894226 48.85368347 128.61894226 47.57104492 126.64331055 C47.08311462 125.89958694 46.59518433 125.15586334 46.09246826 124.38960266 C45.56050842 123.56365097 45.02854858 122.73769928 44.48046875 121.88671875 C43.91813538 121.02648605 43.355802 120.16625336 42.77642822 119.279953 C41.55172428 117.40539275 40.3300685 115.52883842 39.11105347 113.65057373 C35.8440562 108.61803684 32.55406343 103.60057345 29.265625 98.58203125 C28.58636459 97.54433594 27.90710419 96.50664063 27.20726013 95.4375 C20.04872956 84.51705549 12.75572276 73.68883924 5.4375 62.875 C4.84633392 62.0013681 4.25516785 61.12773621 3.64608765 60.22763062 C3.06896027 59.37480499 2.49183289 58.52197937 1.8972168 57.64331055 C1.33053787 56.805858 0.76385895 55.96840546 0.18000793 55.10557556 C-0.93041451 53.46465943 -2.04109592 51.82391851 -3.15205383 50.18336487 C-7.46193956 43.81284676 -11.7332543 37.41714079 -15.97816467 31.00314331 C-18.89887328 26.6023461 -21.90735687 22.28190595 -25 18 C-23.52437955 14.26598538 -21.59823983 12.73698679 -18.28125 10.546875 C-17.34925781 9.928125 -16.41726563 9.309375 -15.45703125 8.671875 C-14.48121094 8.03765625 -13.50539063 7.4034375 -12.5 6.75 C-11.03626953 5.77546875 -11.03626953 5.77546875 -9.54296875 4.78125 C-2.28069196 0 -2.28069196 0 0 0 Z " fill="#FCD31E" transform="translate(773,516)"/>
<path d="M0 0 C2.51223394 1.46350364 3.64555649 3.20888196 5.24682617 5.63085938 C5.86557617 6.5615625 6.48432617 7.49226563 7.12182617 8.45117188 C8.0731543 9.92070312 8.0731543 9.92070312 9.04370117 11.41992188 C9.69338867 12.391875 10.34307617 13.36382812 11.01245117 14.36523438 C15.79370117 21.6375558 15.79370117 21.6375558 15.79370117 25.04492188 C14.41264343 26.31149292 14.41264343 26.31149292 12.43701172 27.58740234 C11.69324783 28.07528229 10.94948395 28.56316223 10.18318176 29.06582642 C9.35727036 29.59259979 8.53135895 30.11937317 7.68041992 30.66210938 C6.3906147 31.50314713 6.3906147 31.50314713 5.07475281 32.36117554 C3.20157552 33.58125094 1.32533553 34.79663377 -0.55352783 36.00793457 C-5.60103633 39.26253497 -10.62663432 42.55070977 -15.65551758 45.83398438 C-16.6948645 46.5111853 -17.73421143 47.18838623 -18.80505371 47.8861084 C-29.56090072 54.90393403 -40.20063455 62.08948173 -50.83129883 69.29492188 C-66.19382339 79.69570496 -81.61988226 89.98218309 -97.20629883 100.04492188 C-100.07769027 97.32638016 -102.30861634 94.60530655 -104.44067383 91.27929688 C-105.30112305 89.94511719 -105.30112305 89.94511719 -106.17895508 88.58398438 C-106.76547852 87.66359375 -107.35200195 86.74320313 -107.95629883 85.79492188 C-108.55829102 84.8590625 -109.1602832 83.92320312 -109.78051758 82.95898438 C-111.26027989 80.65713189 -112.73535216 78.35241384 -114.20629883 76.04492188 C-110.93183331 73.37337731 -107.60498991 70.88456082 -104.10473633 68.51757812 C-103.07993164 67.82317627 -102.05512695 67.12877441 -100.99926758 66.41333008 C-99.8599966 65.64461703 -98.72067161 64.87598402 -97.58129883 64.10742188 C-96.36115186 63.28228547 -95.14110311 62.45700382 -93.92114258 61.6315918 C-90.45691356 59.28875492 -86.99060089 56.94901542 -83.52404785 54.60961914 C-81.10274764 52.97501514 -78.6822541 51.33922258 -76.26196289 49.703125 C-66.31992727 42.98279829 -56.37074236 36.27328436 -46.41273499 29.5766449 C-40.99129302 25.92822627 -35.58172505 22.26303784 -30.18203735 18.58250427 C-26.83947222 16.30672151 -23.49027921 14.04083315 -20.13964844 11.77694702 C-18.56823345 10.7118 -16.99982522 9.64220258 -15.43457031 8.56802368 C-13.28406813 7.09296329 -11.12367419 5.63368221 -8.96020508 4.17773438 C-8.3299794 3.73972 -7.69975372 3.30170563 -7.0504303 2.85041809 C-2.85349284 0.05809922 -2.85349284 0.05809922 0 0 Z " fill="#FCD31E" transform="translate(518.206298828125,465.955078125)"/>
<path d="M0 0 C9.57 0 19.14 0 29 0 C29 45.21 29 90.42 29 137 C19.43 137 9.86 137 0 137 C0 91.79 0 46.58 0 0 Z " fill="#FED41D" transform="translate(652,553)"/>
<path d="M0 0 C9.57 0 19.14 0 29 0 C29 45.21 29 90.42 29 137 C19.43 137 9.86 137 0 137 C0 91.79 0 46.58 0 0 Z " fill="#FED41D" transform="translate(652,78)"/>
<path d="M0 0 C15.51 0 31.02 0 47 0 C47 24.05074335 38.23677432 46.14483852 25 66 C20.52196264 65.41627074 17.41478172 63.68191553 13.5625 61.375 C6.53502285 57.23073583 -0.6638889 53.56771361 -8 50 C-7.26315543 42.87992892 -5.68330856 36.11350393 -3.90429688 29.1875 C-1.54042079 19.36286184 -1.03933377 10.39333774 0 0 Z " fill="#034A8E" transform="translate(743,390)"/>
<path d="M0 0 C15.51 0 31.02 0 47 0 C47.5878125 5.56875 47.5878125 5.56875 48.1875 11.25 C49.24333465 20.62423284 50.84426463 29.62720481 53.3737793 38.71582031 C54.44706514 42.58507122 55.30073535 45.9360088 55 50 C53.51113281 50.72703125 53.51113281 50.72703125 51.9921875 51.46875 C43.73220461 55.53482552 35.69429949 59.80318097 27.79296875 64.53125 C25 66 25 66 22 66 C20.39324045 63.81480702 19.03412105 61.71505339 17.6875 59.375 C17.09146973 58.35490845 17.09146973 58.35490845 16.48339844 57.31420898 C6.41252465 39.71872079 0 20.32099191 0 0 Z " fill="#034A8E" transform="translate(543,390)"/>
<path d="M0 0 C2.70294402 2.27267946 4.3988934 4.97269913 6.1640625 7.984375 C6.55102295 8.64284424 6.9379834 9.30131348 7.33666992 9.97973633 C17.11501119 27.19591144 22.9140625 45.77880323 22.9140625 65.609375 C7.4040625 65.609375 -8.1059375 65.609375 -24.0859375 65.609375 C-24.4778125 61.896875 -24.8696875 58.184375 -25.2734375 54.359375 C-26.50849134 43.45128762 -28.64929014 33.05945553 -31.58300781 22.49414062 C-32.19052748 20.21741642 -32.66856409 17.92811617 -33.0859375 15.609375 C-31.93738281 15.1246875 -30.78882813 14.64 -29.60546875 14.140625 C-20.7616929 10.34225096 -12.60128887 6.38361148 -4.6875 0.8828125 C-2.0859375 -0.390625 -2.0859375 -0.390625 0 0 Z " fill="#024A8E" transform="translate(767.0859375,312.390625)"/>
<path d="M0 0 C2.97543617 0.62388178 5.28259865 1.58384661 7.90625 3.109375 C8.64504395 3.53234863 9.38383789 3.95532227 10.14501953 4.39111328 C11.31073486 5.06376221 11.31073486 5.06376221 12.5 5.75 C19.50462734 9.72774407 26.43956261 13.18336646 34 16 C33.45212576 19.04374576 32.74077103 22.00711647 31.9140625 24.984375 C28.19776644 38.59009164 26.48129513 51.96667773 25 66 C9.49 66 -6.02 66 -22 66 C-22 41.79870182 -13.31065244 19.96597866 0 0 Z " fill="#024A8E" transform="translate(565,312)"/>
<path d="M0 0 C19.14 0 38.28 0 58 0 C58 10.14053174 58 10.14053174 57.23046875 14.77734375 C57.06353516 15.78603516 56.89660156 16.79472656 56.72460938 17.83398438 C56.54736328 18.85814453 56.37011719 19.88230469 56.1875 20.9375 C56.02185547 21.95779297 55.85621094 22.97808594 55.68554688 24.02929688 C53.23241622 38.53516755 53.23241622 38.53516755 50 45 C45.43064116 44.56063857 41.18136659 43.82725997 36.75 42.625 C31.16573008 41.1756475 25.57470586 40.22351016 19.875 39.375 C19.05225586 39.25205566 18.22951172 39.12911133 17.38183594 39.00244141 C11.58957726 38.16624317 5.83420463 37.58342046 0 37 C0 24.79 0 12.58 0 0 Z " fill="#034A8E" transform="translate(673,390)"/>
<path d="M0 0 C19.14 0 38.28 0 58 0 C58 12.21 58 24.42 58 37 C53.9575 37.391875 49.915 37.78375 45.75 38.1875 C35.11578517 39.29356171 25.00936824 41.14259952 14.71875 44.01171875 C11 45 11 45 8 45 C5.36517036 38.17886744 3.52718515 31.38247211 2.3125 24.1875 C2.19350342 23.50252441 2.07450684 22.81754883 1.9519043 22.11181641 C0.77813015 14.72389408 0.50347793 7.55216892 0 0 Z " fill="#024A8E" transform="translate(602,390)"/>
<path d="M0 0 C4.22931706 14.62708469 8 29.68475712 8 45 C-11.14 45 -30.28 45 -50 45 C-50 32.79 -50 20.58 -50 8 C-46.1225 7.608125 -42.245 7.21625 -38.25 6.8125 C-27.83401871 5.68602116 -17.93583491 3.79268779 -7.8515625 0.98828125 C-4 0 -4 0 0 0 Z " fill="#024A8E" transform="translate(723,333)"/>
<path d="M0 0 C4.65636682 0.90123229 9.29406552 1.81376075 13.8984375 2.953125 C25.91782344 5.87392947 37.65606225 7.06248574 50 8 C50 20.21 50 32.42 50 45 C30.86 45 11.72 45 -8 45 C-7.35649545 35.34743179 -6.63314794 26.72824979 -4.5625 17.4375 C-4.34529297 16.41076172 -4.12808594 15.38402344 -3.90429688 14.32617188 C-2.85222527 9.44493878 -1.7261498 4.69673319 0 0 Z " fill="#01498F" transform="translate(610,333)"/>
<path d="M0 0 C0 22.44 0 44.88 0 68 C-5.26808627 66.94638275 -7.11079078 65.48863563 -10.625 61.8125 C-11.14570068 61.27641113 -11.66640137 60.74032227 -12.20288086 60.18798828 C-25.54242013 46.20054584 -38.87372012 28.52332737 -45 10 C-44.67 9.01 -44.34 8.02 -44 7 C-42.21264648 6.23217773 -42.21264648 6.23217773 -39.87109375 5.68359375 C-39.00822754 5.47758545 -38.14536133 5.27157715 -37.25634766 5.05932617 C-36.32612793 4.85412354 -35.3959082 4.6489209 -34.4375 4.4375 C-33.49181152 4.22134033 -32.54612305 4.00518066 -31.57177734 3.7824707 C-21.05967539 1.45265144 -10.79200135 0 0 0 Z " fill="#014A8F" transform="translate(660,439)"/>
<path d="M0 0 C20.7876588 1.15486993 20.7876588 1.15486993 27.5625 2.875 C28.67407471 3.13845215 28.67407471 3.13845215 29.80810547 3.40722656 C34.97566751 4.6601756 40.01111639 6.15226533 45 8 C39.0001976 29.37429606 21.70161228 54.43460604 4 68 C2.68 68 1.36 68 0 68 C0 45.56 0 23.12 0 0 Z " fill="#014A8F" transform="translate(673,439)"/>
<path d="M0 0 C0 22.44 0 44.88 0 68 C-12.38632664 68 -12.38632664 68 -16.71875 67.23046875 C-18.14767578 66.98006836 -18.14767578 66.98006836 -19.60546875 66.72460938 C-20.56066406 66.54736328 -21.51585937 66.37011719 -22.5 66.1875 C-23.45519531 66.02185547 -24.41039062 65.85621094 -25.39453125 65.68554688 C-32.04403672 64.49331484 -38.51221062 62.87750295 -45 61 C-39.77081338 41.47770329 -25.81260288 24.2632268 -12 10 C-11.52933105 9.50886719 -11.05866211 9.01773437 -10.57373047 8.51171875 C-2.40169443 0 -2.40169443 0 0 0 Z " fill="#024A8F" transform="translate(660,261)"/>
<path d="M0 0 C19.77568418 9.88784209 37.12446965 38.14131312 44.4765625 58.41015625 C44.64929688 58.93480469 44.82203125 59.45945312 45 60 C39.81658256 62.3997303 34.83130004 63.94452199 29.25 65.125 C28.17685547 65.37830078 28.17685547 65.37830078 27.08203125 65.63671875 C17.98221313 67.58558368 9.58600859 67.49547323 0 68 C0 45.56 0 23.12 0 0 Z " fill="#014A8F" transform="translate(673,261)"/>
<path d="M0 0 C0 0.66 0 1.32 0 2 C-0.66 2 -1.32 2 -2 2 C-2.24621094 2.55945313 -2.49242187 3.11890625 -2.74609375 3.6953125 C-4.22779666 6.41869167 -6.03823549 8.52585353 -8.0625 10.875 C-18.04800075 22.9660696 -28.00878785 38.02636354 -33 53 C-39.71592006 51.00739776 -45.76421788 48.29241713 -51.9375 45 C-52.78634766 44.56171875 -53.63519531 44.1234375 -54.50976562 43.671875 C-55.31994141 43.24390625 -56.13011719 42.8159375 -56.96484375 42.375 C-58.05720337 41.79878906 -58.05720337 41.79878906 -59.17163086 41.2109375 C-61 40 -61 40 -63 37 C-48.5231634 21.64082799 -22.59639787 0 0 0 Z " fill="#044B8E" transform="translate(637,264)"/>
<path d="M0 0 C24.77814507 4.92747203 45.76139416 18.95959854 63 37 C59.32602781 41.35208827 54.66061915 43.55650781 49.6875 46.125 C48.85798828 46.56714844 48.02847656 47.00929688 47.17382812 47.46484375 C42.50752076 49.90296172 38.12185927 51.76964784 33 53 C32.77449463 52.49774902 32.54898926 51.99549805 32.31665039 51.47802734 C24.31133131 33.78120961 14.76155346 18.52446189 2.203125 3.6875 C0 1 0 1 0 0 Z " fill="#034B8E" transform="translate(696,264)"/>
<path d="M0 0 C2.88801054 3.49227121 4.74189422 7.37970106 6.6875 11.4375 C12.6198312 23.51359008 19.77010558 34.34509065 28 45 C29.19023552 46.58127799 30.37812349 48.16432886 31.5625 49.75 C32.27599609 50.70132813 32.27599609 50.70132813 33.00390625 51.671875 C33.33261719 52.11015625 33.66132812 52.5484375 34 53 C10.67920681 48.90863277 -13.62677486 33.74768497 -28 15 C-18.98097718 9.14447928 -9.82527103 4.34866767 0 0 Z " fill="#044B8D" transform="translate(602,451)"/>
<path d="M0 0 C10.2760074 4.22120971 19.7129734 8.87755952 29 15 C14.42752884 33.1171263 -8.07010765 47.88208027 -31 53 C-31.66 52.67 -32.32 52.34 -33 52 C-32.00033203 50.88818359 -32.00033203 50.88818359 -30.98046875 49.75390625 C-18.4114725 35.5104258 -9.61339689 20.06625205 -1.85693359 2.77148438 C-1 1 -1 1 0 0 Z " fill="#044B8E" transform="translate(730,451)"/>
</svg>
